<?xml version="1.0" encoding="UTF-8"?>
<svg class="img-fluid animated" style="content-visibility:visible;height:100%;transform:translate3d(0px, 0px, 0px);width:100%" viewBox="0 0 9175 6117" xmlns="http://www.w3.org/2000/svg">
<defs>
<clipPath id="a">
<rect width="9175" height="6117"/>
</clipPath>
</defs>
<g clip-path="url(#a)">
<g transform="translate(1471.4 535.49)" display="block">
<g transform="translate(3149.6 2524.6)">
<path d="m3036 487.48c-107.4-299.41-276.51-390.53-437.35-582.57-196.46-234.56-328.96-405.07-277.96-706.76 83.351-492.99 119.03-1722.5-1186.1-1561.8-467.79 57.605-837.45 416.08-1106.4 773.91-228.83 304.48-640.45 331.33-971.77 402.32-407.08 87.221-821.76 218.97-1198.4 412.01-775.69 397.57-1007.4 969.1-975.73 1700.4 9.5601 220.93 40.825 568.93 414.03 976.13 503.72 549.62 1235.7 623.21 2116.7 370.8 201.66-57.776 392.28-148.39 590.65-216.62 206.09-70.874 420.53-117.43 637.45-138.41 506-48.926 1030.5 39.556 1515.9-111.51 256.66-79.881 492.37-226.07 677.99-420.48 231.85-242.83 314.31-581.4 200.96-897.42z" fill="#eae6ff"/>
</g>
</g>
<g transform="translate(1757 2075.7)" display="block">
<g transform="translate(2047.2 2559.9)">
<path d="m-2047 0.016c0 72.218 916.45 130.81 2047.1 130.81 1130.5 0 2046.9-58.596 2046.9-130.81 0-72.26-916.45-130.85-2046.9-130.85-1130.6 0-2047.1 58.586-2047.1 130.85z" fill="#cdccff"/>
</g>
<g transform="translate(2754.5 2305.2)">
<path d="m0 0" fill="#4941a2"/>
</g>
<g transform="translate(2759.3 1131.5)">
<path d="m1563.1 1131.3h-3126.2c-5.1849 0-9.3879-4.202-9.3879-9.387v-2243.8c0-5.184 4.203-9.386 9.3879-9.386h3126.2c5.1849 0 9.3879 4.202 9.3879 9.386v2243.8c0 5.1849-4.203 9.387-9.3879 9.387z" fill="#5751bb"/>
</g>
<g transform="translate(2754.5 1064.3)">
<path d="m1474.1 981.5h-2948.2c-3.186 0-5.7681-2.581-5.7681-5.767v-1951.5c0-3.185 2.582-5.767 5.7681-5.767h2948.2c3.1859 0 5.767 2.582 5.767 5.767v1951.5c0 3.186-2.5811 5.767-5.767 5.767z" fill="#c4c3fb"/>
</g>
<g transform="translate(2754.5 2482.9)">
<path d="m843.56 76.927h-1687.1v-146.53c0-4.044 3.278-7.322 7.322-7.322h1672.5c4.044 0 7.3231 3.278 7.3231 7.322v146.53z" fill="#5751bb"/>
</g>
<g transform="translate(508 -271.75)">
<g transform="translate(2466.8 1222.2)">
<path d="m944.72 696.01h-1889.4c-50.115 0-90.741-40.626-90.741-90.741v-1210.5c0-50.116 40.626-90.742 90.741-90.742h1889.4c50.115 0 90.741 40.626 90.741 90.742v1210.5c0 50.115-40.626 90.741-90.741 90.741z" fill="#c4c3fb"/>
</g>
<g transform="translate(2508.8 1168)">
<path d="m944.72 696.01h-1889.4c-50.115 0-90.741-40.626-90.741-90.741v-1210.5c0-50.116 40.626-90.742 90.741-90.742h1889.4c50.115 0 90.741 40.626 90.741 90.742v1210.5c0 50.115-40.626 90.741-90.741 90.741z" fill="#fff"/>
</g>
<g transform="translate(2014.2 1386.3)">
<path d="m403.67 391.44h-807.35v-782.88h12.316v770.56h795.03v12.314z" fill="#d4dbda"/>
</g>
<g transform="translate(1999.2 1186.8)">
<path d="m-305.67 196.06s-8.227-9.163-8.227-9.163l211.19-189.64 195.62 42.497s211.82-235.82 211.82-235.82l9.167 8.23-216.61 241.14s-196.45-42.678-196.45-42.678l-206.51 185.43z" fill="#d4dbda"/>
</g>
<g transform="translate(2308.5 994.83)">
<path d="m21.174 38.954-59.729-57.276 77.11-20.632-17.381 77.908z" fill="#d4dbda"/>
</g>
<g transform="translate(2525.3 1503.8)">
<path d="m0 0" fill="#b0aefc"/>
</g>
<g transform="translate(2525.3 1612.4)">
<path d="m0 0" fill="#fba70b"/>
</g>
<g transform="translate(2671.6 1625.7)">
<path d="m0 0" fill="#eee"/>
</g>
<g transform="translate(2671.6 1517.2)">
<path d="m0 0" fill="#eee"/>
</g>
<g transform="translate(2889.7 1503.8)">
<path d="m0 0" fill="#b0aefc"/>
</g>
<g transform="translate(2889.7 1612.4)">
<path d="m0 0" fill="#fba70b"/>
</g>
<g transform="translate(3035.9 1625.7)">
<path d="m0 0" fill="#eee"/>
</g>
<g transform="translate(3035.9 1517.2)">
<path d="m0 0" fill="#eee"/>
</g>
<g transform="translate(3217.7 1503.8)">
<path d="m0 0" fill="#b0aefc"/>
</g>
<g transform="translate(3217.7 1612.4)">
<path d="m0 0" fill="#fba70b"/>
</g>
<g transform="translate(3330.4 1625.7)">
<path d="m0 0" fill="#eee"/>
</g>
<g transform="translate(3330.4 1517.2)">
<path d="m0 0" fill="#eee"/>
</g>
<g transform="translate(2508.8 557.11)">
<path d="m944.72-85.082h-1889.4c-50.115 0-90.743 40.627-90.743 90.743v79.421h2070.9v-79.421c0-50.116-40.626-90.743-90.741-90.743z" fill="#7a7ae5"/>
</g>
<g transform="translate(3251.7 560.23)">
<path d="m26.165 0c0 14.45-11.715 26.164-26.165 26.164s-26.165-11.714-26.165-26.164 11.715-26.164 26.165-26.164 26.165 11.714 26.165 26.164z" fill="#cfcfff"/>
</g>
<g transform="translate(3358.4 560.23)">
<path d="m26.165 0c0 14.45-11.715 26.164-26.165 26.164s-26.165-11.714-26.165-26.164 11.715-26.164 26.165-26.164 26.165 11.714 26.165 26.164z" fill="#cfcfff"/>
</g>
<g transform="translate(3465 560.23)">
<path d="m26.165 0c0 14.45-11.715 26.164-26.165 26.164-14.448 0-26.165-11.714-26.165-26.164s11.717-26.164 26.165-26.164c14.45 0 26.165 11.714 26.165 26.164z" fill="#cfcfff"/>
</g>
<g transform="translate(2500 670.82)">
<path d="m891-16.5v33h-1782v-33h1782z" fill="#d5dbda"/>
<path d="m891-16.5v33h-1782v-33h1782z" fill-opacity="0" stroke="#46341f" stroke-width="0"/>
</g>
<g transform="translate(2947 810.32)">
<path d="m446-8v16h-892v-16h892z" fill="#efefef"/>
<path d="m446-8v16h-892v-16h892z" fill-opacity="0" stroke="#46341f" stroke-width="0"/>
</g>
<g transform="translate(2947 1010.3)">
<path d="m446-8v16h-892v-16h892z" fill="#efefef"/>
<path d="m446-8v16h-892v-16h892z" fill-opacity="0" stroke="#46341f" stroke-width="0"/>
</g>
<g transform="translate(2947 910.32)">
<path d="m446-8v16h-892v-16h892z" fill="#efefef"/>
<path d="m446-8v16h-892v-16h892z" fill-opacity="0" stroke="#46341f" stroke-width="0"/>
</g>
<g transform="translate(2947 1110.3)">
<path d="m446-8v16h-892v-16h892z" fill="#efefef"/>
<path d="m446-8v16h-892v-16h892z" fill-opacity="0" stroke="#46341f" stroke-width="0"/>
</g>
<g transform="translate(2947 860.32)">
<path d="m446-8v16h-892v-16h892z" fill="#efefef"/>
<path d="m446-8v16h-892v-16h892z" fill-opacity="0" stroke="#46341f" stroke-width="0"/>
</g>
<g transform="translate(2947 1060.3)">
<path d="m446-8v16h-892v-16h892z" fill="#efefef"/>
<path d="m446-8v16h-892v-16h892z" fill-opacity="0" stroke="#46341f" stroke-width="0"/>
</g>
<g transform="translate(2947 960.32)">
<path d="m446-8v16h-892v-16h892z" fill="#efefef"/>
<path d="m446-8v16h-892v-16h892z" fill-opacity="0" stroke="#46341f" stroke-width="0"/>
</g>
<g transform="translate(2947 1160.3)">
<path d="m446-8v16h-892v-16h892z" fill="#efefef"/>
<path d="m446-8v16h-892v-16h892z" fill-opacity="0" stroke="#46341f" stroke-width="0"/>
</g>
<g transform="translate(2947 1212.3)">
<path d="m446-8v16h-892v-16h892z" fill="#efefef"/>
<path d="m446-8v16h-892v-16h892z" fill-opacity="0" stroke="#46341f" stroke-width="0"/>
</g>
<g transform="matrix(.86907 0 0 1 3004 1263.3)">
<path d="m446-8v16h-892v-16h892z" fill="#efefef"/>
<path d="m446-8v16h-892v-16h892z" fill-opacity="0" stroke="#46341f" stroke-width="0"/>
</g>
<g transform="translate(2524 1501.3)">
<path d="m30-31v62h-60v-62h60z" fill="#b1affd"/>
<path d="m30-31v62h-60v-62h60z" fill-opacity="0" stroke="#46341f" stroke-width="0"/>
</g>
<g transform="translate(2524 1609.3)">
<path d="m30-31v62h-60v-62h60z" fill="#fca70c"/>
<path d="m30-31v62h-60v-62h60z" fill-opacity="0" stroke="#46341f" stroke-width="0"/>
</g>
<g transform="translate(2888 1501.3)">
<path d="m30-31v62h-60v-62h60z" fill="#b1affd"/>
<path d="m30-31v62h-60v-62h60z" fill-opacity="0" stroke="#46341f" stroke-width="0"/>
</g>
<g transform="translate(2888 1609.3)">
<path d="m30-31v62h-60v-62h60z" fill="#fca70c"/>
<path d="m30-31v62h-60v-62h60z" fill-opacity="0" stroke="#46341f" stroke-width="0"/>
</g>
<g transform="translate(3216 1501.3)">
<path d="m30-31v62h-60v-62h60z" fill="#b1affd"/>
<path d="m30-31v62h-60v-62h60z" fill-opacity="0" stroke="#46341f" stroke-width="0"/>
</g>
<g transform="translate(3216 1609.3)">
<path d="m30-31v62h-60v-62h60z" fill="#fca70c"/>
<path d="m30-31v62h-60v-62h60z" fill-opacity="0" stroke="#46341f" stroke-width="0"/>
</g>
<g transform="translate(2670.5 1513.3)">
<path d="m97.5-18v36h-195v-36h195z" fill="#efefef"/>
<path d="m97.5-18v36h-195v-36h195z" fill-opacity="0" stroke="#46341f" stroke-width="0"/>
</g>
<g transform="translate(3034.5 1513.3)">
<path d="m97.5-18v36h-195v-36h195z" fill="#efefef"/>
<path d="m97.5-18v36h-195v-36h195z" fill-opacity="0" stroke="#46341f" stroke-width="0"/>
</g>
<g transform="translate(2670.5 1621.3)">
<path d="m97.5-18v36h-195v-36h195z" fill="#efefef"/>
<path d="m97.5-18v36h-195v-36h195z" fill-opacity="0" stroke="#46341f" stroke-width="0"/>
</g>
<g transform="translate(3034.5 1621.3)">
<path d="m97.5-18v36h-195v-36h195z" fill="#efefef"/>
<path d="m97.5-18v36h-195v-36h195z" fill-opacity="0" stroke="#46341f" stroke-width="0"/>
</g>
<g transform="translate(3330 1513.8)">
<path d="m65-16.5v33h-130v-33h130z" fill="#efefef"/>
<path d="m65-16.5v33h-130v-33h130z" fill-opacity="0" stroke="#46341f" stroke-width="0"/>
</g>
<g transform="translate(3330.5 1622.3)">
<path d="m64.5-17v34h-129v-34h129z" fill="#efefef"/>
<path d="m64.5-17v34h-129v-34h129z" fill-opacity="0" stroke="#46341f" stroke-width="0"/>
</g>
<g transform="matrix(1 0 0 1.0473 2323 1451.8)">
<path d="m44-247v494h-88v-494h88z" fill="#b1affd"/>
<path d="m44-247v494h-88v-494h88z" fill-opacity="0" stroke="#46341f" stroke-width="0"/>
</g>
<g transform="matrix(1 0 0 1.0473 1917 1525)">
<path d="m44-177v354h-88v-354h88z" fill="#b1affd"/>
<path d="m44-177v354h-88v-354h88z" fill-opacity="0" stroke="#46341f" stroke-width="0"/>
</g>
<g transform="matrix(1 0 0 .96185 2122 1573.7)">
<path d="m45-144v288h-90v-288h90z" fill="#fca70c"/>
<path d="m45-144v288h-90v-288h90z" fill-opacity="0" stroke="#46341f" stroke-width="0"/>
</g>
<g transform="translate(1715 1627.3)">
<path d="m44-87v174h-88v-174h88z" fill="#fca70c"/>
<path d="m44-87v174h-88v-174h88z" fill-opacity="0" stroke="#46341f" stroke-width="0"/>
</g>
<g transform="translate(2509 1208.3)" opacity=".1">
<path d="m1034-568v1136h-2068v-1136h2068z" fill="#3e3e3e"/>
<path d="m1034-568v1136h-2068v-1136h2068z" fill-opacity="0" stroke="#46341f" stroke-width="0"/>
</g>
</g>
<g transform="translate(0 -22.241)">
<g transform="translate(2466.8 1222.2)">
<path d="m944.72 696.01h-1889.4c-50.115 0-90.741-40.626-90.741-90.741v-1210.5c0-50.116 40.626-90.742 90.741-90.742h1889.4c50.115 0 90.741 40.626 90.741 90.742v1210.5c0 50.115-40.626 90.741-90.741 90.741z" fill="#c4c3fb"/>
</g>
<g transform="translate(2508.8 1168)">
<path d="m944.72 696.01h-1889.4c-50.115 0-90.741-40.626-90.741-90.741v-1210.5c0-50.116 40.626-90.742 90.741-90.742h1889.4c50.115 0 90.741 40.626 90.741 90.742v1210.5c0 50.115-40.626 90.741-90.741 90.741z" fill="#fff"/>
</g>
<g transform="translate(2014.2 1386.3)">
<path d="m403.67 391.44h-807.35v-782.88h12.316v770.56h795.03v12.314z" fill="#d4dbda"/>
</g>
<g transform="translate(1999.2 1186.8)">
<path d="m-305.67 196.06s-8.227-9.163-8.227-9.163l211.19-189.64 195.62 42.497s211.82-235.82 211.82-235.82l9.167 8.23-216.61 241.14s-196.45-42.678-196.45-42.678l-206.51 185.43z" fill="#d4dbda"/>
</g>
<g transform="translate(2308.5 994.83)">
<path d="m21.174 38.954-59.729-57.276 77.11-20.632-17.381 77.908z" fill="#d4dbda"/>
</g>
<g transform="translate(2525.3 1503.8)">
<path d="m0 0" fill="#b0aefc"/>
</g>
<g transform="translate(2525.3 1612.4)">
<path d="m0 0" fill="#fba70b"/>
</g>
<g transform="translate(2671.6 1625.7)">
<path d="m0 0" fill="#eee"/>
</g>
<g transform="translate(2671.6 1517.2)">
<path d="m0 0" fill="#eee"/>
</g>
<g transform="translate(2889.7 1503.8)">
<path d="m0 0" fill="#b0aefc"/>
</g>
<g transform="translate(2889.7 1612.4)">
<path d="m0 0" fill="#fba70b"/>
</g>
<g transform="translate(3035.9 1625.7)">
<path d="m0 0" fill="#eee"/>
</g>
<g transform="translate(3035.9 1517.2)">
<path d="m0 0" fill="#eee"/>
</g>
<g transform="translate(3217.7 1503.8)">
<path d="m0 0" fill="#b0aefc"/>
</g>
<g transform="translate(3217.7 1612.4)">
<path d="m0 0" fill="#fba70b"/>
</g>
<g transform="translate(3330.4 1625.7)">
<path d="m0 0" fill="#eee"/>
</g>
<g transform="translate(3330.4 1517.2)">
<path d="m0 0" fill="#eee"/>
</g>
<g transform="translate(2508.8 557.11)">
<path d="m944.72-85.082h-1889.4c-50.115 0-90.743 40.627-90.743 90.743v79.421h2070.9v-79.421c0-50.116-40.626-90.743-90.741-90.743z" fill="#fd675b"/>
</g>
<g transform="translate(3251.7 560.23)">
<path d="m26.165 0c0 14.45-11.715 26.164-26.165 26.164s-26.165-11.714-26.165-26.164 11.715-26.164 26.165-26.164 26.165 11.714 26.165 26.164z" fill="#cfcfff"/>
</g>
<g transform="translate(3358.4 560.23)">
<path d="m26.165 0c0 14.45-11.715 26.164-26.165 26.164s-26.165-11.714-26.165-26.164 11.715-26.164 26.165-26.164 26.165 11.714 26.165 26.164z" fill="#cfcfff"/>
</g>
<g transform="translate(3465 560.23)">
<path d="m26.165 0c0 14.45-11.715 26.164-26.165 26.164-14.448 0-26.165-11.714-26.165-26.164s11.717-26.164 26.165-26.164c14.45 0 26.165 11.714 26.165 26.164z" fill="#cfcfff"/>
</g>
<g transform="translate(2500 670.82)">
<path d="m891-16.5v33h-1782v-33h1782z" fill="#d5dbda"/>
<path d="m891-16.5v33h-1782v-33h1782z" fill-opacity="0" stroke="#46341f" stroke-width="0"/>
</g>
<g transform="translate(2947 810.32)">
<path d="m446-8v16h-892v-16h892z" fill="#efefef"/>
<path d="m446-8v16h-892v-16h892z" fill-opacity="0" stroke="#46341f" stroke-width="0"/>
</g>
<g transform="translate(2947 1010.3)">
<path d="m446-8v16h-892v-16h892z" fill="#efefef"/>
<path d="m446-8v16h-892v-16h892z" fill-opacity="0" stroke="#46341f" stroke-width="0"/>
</g>
<g transform="translate(2947 910.32)">
<path d="m446-8v16h-892v-16h892z" fill="#efefef"/>
<path d="m446-8v16h-892v-16h892z" fill-opacity="0" stroke="#46341f" stroke-width="0"/>
</g>
<g transform="translate(2947 1110.3)">
<path d="m446-8v16h-892v-16h892z" fill="#efefef"/>
<path d="m446-8v16h-892v-16h892z" fill-opacity="0" stroke="#46341f" stroke-width="0"/>
</g>
<g transform="translate(2947 860.32)">
<path d="m446-8v16h-892v-16h892z" fill="#efefef"/>
<path d="m446-8v16h-892v-16h892z" fill-opacity="0" stroke="#46341f" stroke-width="0"/>
</g>
<g transform="translate(2947 1060.3)">
<path d="m446-8v16h-892v-16h892z" fill="#efefef"/>
<path d="m446-8v16h-892v-16h892z" fill-opacity="0" stroke="#46341f" stroke-width="0"/>
</g>
<g transform="translate(2947 960.32)">
<path d="m446-8v16h-892v-16h892z" fill="#efefef"/>
<path d="m446-8v16h-892v-16h892z" fill-opacity="0" stroke="#46341f" stroke-width="0"/>
</g>
<g transform="translate(2947 1160.3)">
<path d="m446-8v16h-892v-16h892z" fill="#efefef"/>
<path d="m446-8v16h-892v-16h892z" fill-opacity="0" stroke="#46341f" stroke-width="0"/>
</g>
<g transform="translate(2947 1212.3)">
<path d="m446-8v16h-892v-16h892z" fill="#efefef"/>
<path d="m446-8v16h-892v-16h892z" fill-opacity="0" stroke="#46341f" stroke-width="0"/>
</g>
<g transform="matrix(.86907 0 0 1 3004 1263.3)">
<path d="m446-8v16h-892v-16h892z" fill="#efefef"/>
<path d="m446-8v16h-892v-16h892z" fill-opacity="0" stroke="#46341f" stroke-width="0"/>
</g>
<g transform="translate(2524 1501.3)">
<path d="m30-31v62h-60v-62h60z" fill="#b1affd"/>
<path d="m30-31v62h-60v-62h60z" fill-opacity="0" stroke="#46341f" stroke-width="0"/>
</g>
<g transform="translate(2524 1609.3)">
<path d="m30-31v62h-60v-62h60z" fill="#fca70c"/>
<path d="m30-31v62h-60v-62h60z" fill-opacity="0" stroke="#46341f" stroke-width="0"/>
</g>
<g transform="translate(2888 1501.3)">
<path d="m30-31v62h-60v-62h60z" fill="#b1affd"/>
<path d="m30-31v62h-60v-62h60z" fill-opacity="0" stroke="#46341f" stroke-width="0"/>
</g>
<g transform="translate(2888 1609.3)">
<path d="m30-31v62h-60v-62h60z" fill="#fca70c"/>
<path d="m30-31v62h-60v-62h60z" fill-opacity="0" stroke="#46341f" stroke-width="0"/>
</g>
<g transform="translate(3216 1501.3)">
<path d="m30-31v62h-60v-62h60z" fill="#b1affd"/>
<path d="m30-31v62h-60v-62h60z" fill-opacity="0" stroke="#46341f" stroke-width="0"/>
</g>
<g transform="translate(3216 1609.3)">
<path d="m30-31v62h-60v-62h60z" fill="#fca70c"/>
<path d="m30-31v62h-60v-62h60z" fill-opacity="0" stroke="#46341f" stroke-width="0"/>
</g>
<g transform="translate(2670.5 1513.3)">
<path d="m97.5-18v36h-195v-36h195z" fill="#efefef"/>
<path d="m97.5-18v36h-195v-36h195z" fill-opacity="0" stroke="#46341f" stroke-width="0"/>
</g>
<g transform="translate(3034.5 1513.3)">
<path d="m97.5-18v36h-195v-36h195z" fill="#efefef"/>
<path d="m97.5-18v36h-195v-36h195z" fill-opacity="0" stroke="#46341f" stroke-width="0"/>
</g>
<g transform="translate(2670.5 1621.3)">
<path d="m97.5-18v36h-195v-36h195z" fill="#efefef"/>
<path d="m97.5-18v36h-195v-36h195z" fill-opacity="0" stroke="#46341f" stroke-width="0"/>
</g>
<g transform="translate(3034.5 1621.3)">
<path d="m97.5-18v36h-195v-36h195z" fill="#efefef"/>
<path d="m97.5-18v36h-195v-36h195z" fill-opacity="0" stroke="#46341f" stroke-width="0"/>
</g>
<g transform="translate(3330 1513.8)">
<path d="m65-16.5v33h-130v-33h130z" fill="#efefef"/>
<path d="m65-16.5v33h-130v-33h130z" fill-opacity="0" stroke="#46341f" stroke-width="0"/>
</g>
<g transform="translate(3330.5 1622.3)">
<path d="m64.5-17v34h-129v-34h129z" fill="#efefef"/>
<path d="m64.5-17v34h-129v-34h129z" fill-opacity="0" stroke="#46341f" stroke-width="0"/>
</g>
<g transform="matrix(1 0 0 1.0473 2323 1451.8)">
<path d="m44-247v494h-88v-494h88z" fill="#b1affd"/>
<path d="m44-247v494h-88v-494h88z" fill-opacity="0" stroke="#46341f" stroke-width="0"/>
</g>
<g transform="matrix(1 0 0 1.0473 1917 1525)">
<path d="m44-177v354h-88v-354h88z" fill="#b1affd"/>
<path d="m44-177v354h-88v-354h88z" fill-opacity="0" stroke="#46341f" stroke-width="0"/>
</g>
<g transform="matrix(1 0 0 .96185 2122 1573.7)">
<path d="m45-144v288h-90v-288h90z" fill="#fca70c"/>
<path d="m45-144v288h-90v-288h90z" fill-opacity="0" stroke="#46341f" stroke-width="0"/>
</g>
<g transform="translate(1715 1627.3)">
<path d="m44-87v174h-88v-174h88z" fill="#fca70c"/>
<path d="m44-87v174h-88v-174h88z" fill-opacity="0" stroke="#46341f" stroke-width="0"/>
</g>
</g>
</g>
<g transform="translate(1955.6 3387.8)" display="block">
<g transform="translate(356.26 623.33)">
<path d="m-190.17-234.01s-1.993 27.918-5.007 70.13" fill="#d6d6ff"/>
</g>
<g transform="translate(270.17 430.48)">
<path d="m-15.351 0.037v-9e-3c-0.0010004-1.201 0.191-2.365 0.553-3.47m14.776-4.587c-0.788 0.0030003-1.556 0.074-2.295 0.206m-10.623 7.851h0.0049992" fill="#eae6ff"/>
</g>
<g transform="translate(422.65 430.14)">
<path d="m-15.342 0.033 2.474-0.011s-0.635 3e-3 -1.261 6e-3m14.092-8.051c-0.782 0.0019999-1.55 0.072-2.293 0.204" fill="#eae6ff"/>
</g>
<g transform="translate(346.12 474.78)">
<path d="m-4.268 50.021c1.424 0 2.871-0.022999 4.349-0.075001 6.485-0.216 12.615-0.865 18.38-1.945" fill="#eae6ff"/>
</g>
<g transform="translate(565.81 694.61)">
<path d="m-189.36-173.86s-3.842 25.055-9.465 61.732" fill="#bcc5f8"/>
</g>
<g transform="translate(196.6 1207.9)">
<path d="m2e-3 -98.498c-8.393 0-16.542 1.05-24.321 3.027m24.321 141.19c-3.898 0-7.686-0.488-11.303-1.406" fill="#8684ee"/>
</g>
<g transform="translate(180.4 1207.9)">
<path d="m2e-3 -98.498c-8.393 0-16.542 1.05-24.321 3.027m24.321 141.19c-3.898 0-7.686-0.488-11.303-1.406" fill="#9aa2f4"/>
</g>
<g transform="translate(753.09 1207.9)">
<path d="m2e-3 -98.498c-8.393 0-16.542 1.05-24.321 3.027m24.321 141.19c-3.898 0-7.686-0.488-11.303-1.406" fill="#8684ee"/>
</g>
<g transform="translate(736.89 1207.9)">
<path d="m2e-3 -98.498c-8.393 0-16.542 1.05-24.321 3.027m24.321 141.19c-3.898 0-7.686-0.488-11.303-1.406" fill="#9aa2f4"/>
</g>
<g transform="translate(1220.8 168.61)">
<path d="m275.68-164.86h-28.807" fill-opacity="0" stroke="#9aa2f4" stroke-miterlimit="10" stroke-width="20"/>
</g>
<g transform="translate(480.64 576.21)">
<path d="m-330.68 285.14h110.15" fill-opacity="0" stroke="#9aa2f4" stroke-miterlimit="10" stroke-width="20"/>
</g>
<g>
<path d="m480.64 291.07v22.633" fill-opacity="0" stroke="#9aa2f4" stroke-miterlimit="10" stroke-width="20"/>
</g>
<g>
<path d="m918.15 576.21h-34.728" fill-opacity="0" stroke="#9aa2f4" stroke-miterlimit="10" stroke-width="20"/>
</g>
<g transform="translate(713.54 576.21)">
<path d="m28.297-285.14s-0.814 8.2-2.246 22.633" fill-opacity="0" stroke="#9aa2f4" stroke-miterlimit="10" stroke-width="20"/>
</g>
<g transform="translate(258.62 576.21)">
<path d="m-26.121-285.14s0.751 8.2 2.073 22.633" fill-opacity="0" stroke="#9aa2f4" stroke-miterlimit="10" stroke-width="20"/>
</g>
<g transform="translate(522.97 965.93)">
<path d="m343.54-130.51s11.416 16.978 26.796 39.851" fill-opacity="0" stroke="#9aa2f4" stroke-miterlimit="10" stroke-width="20"/>
</g>
</g>
<g transform="translate(3305.2 3456.9)" display="block">
<g transform="translate(3318 1397.2)">
<path d="m871.9 0c0 35.771-390.36 64.767-871.9 64.767s-871.9-28.996-871.9-64.767c0-35.769 390.36-64.767 871.9-64.767s871.9 28.998 871.9 64.767z" fill="#cdccff"/>
</g>
<g transform="translate(3413.3 707.27)">
<path d="m604.43 707.02h-1208.9c-3.838 0-6.949-3.11-6.949-6.948v-1400.1c0-3.838 3.111-6.948 6.949-6.948h1208.9c3.838 0 6.948 3.11 6.948 6.948v1400.1c0 3.838-3.11 6.948-6.948 6.948z" fill="#a1a7f4"/>
</g>
<g transform="translate(3432.1 293.47)">
<path d="m515.29 145.22h-1030.6c-0.979 0-1.773-0.79399-1.773-1.772v-286.9c0-0.978 0.79401-1.772 1.773-1.772h1030.6c0.979 0 1.772 0.79399 1.772 1.772v286.9c0 0.978-0.79303 1.772-1.772 1.772z" fill="#9090f4"/>
</g>
<g transform="translate(3048 633.88)">
<path d="m131.18 92.184h-262.36c-0.979 0-1.773-0.794-1.773-1.772v-180.82c0-0.979 0.79401-1.773 1.773-1.773h262.36c0.979 0 1.773 0.794 1.773 1.773v180.82c0 0.978-0.79401 1.772-1.773 1.772z" fill="#9090f4"/>
</g>
<g transform="translate(3432.1 633.88)">
<path d="m131.18 92.184h-262.36c-0.98 0-1.774-0.794-1.774-1.772v-180.82c0-0.979 0.79401-1.773 1.774-1.773h262.36c0.979 0 1.773 0.794 1.773 1.773v180.82c0 0.978-0.79401 1.772-1.773 1.772z" fill="#9090f4"/>
</g>
<g transform="translate(3816.2 633.88)">
<path d="m131.18 92.184h-262.36c-0.98 0-1.774-0.794-1.774-1.772v-180.82c0-0.979 0.79401-1.773 1.774-1.773h262.36c0.979 0 1.772 0.794 1.772 1.773v180.82c0 0.978-0.793 1.772-1.772 1.772z" fill="#9090f4"/>
</g>
<g transform="translate(3048 930.26)">
<path d="m131.18 92.183h-262.36c-0.979 0-1.773-0.793-1.773-1.772v-180.82c0-0.979 0.79401-1.773 1.773-1.773h262.36c0.979 0 1.773 0.794 1.773 1.773v180.82c0 0.979-0.79401 1.772-1.773 1.772z" fill="#9090f4"/>
</g>
<g transform="translate(3432.1 930.26)">
<path d="m131.18 92.183h-262.36c-0.98 0-1.774-0.794-1.774-1.772v-180.82c0-0.979 0.79401-1.773 1.774-1.773h262.36c0.979 0 1.773 0.794 1.773 1.773v180.82c0 0.979-0.79401 1.772-1.773 1.772z" fill="#9090f4"/>
</g>
<g transform="translate(3048 1226.6)">
<path d="m131.18 92.184h-262.36c-0.979 0-1.773-0.794-1.773-1.772v-180.82c0-0.979 0.79401-1.773 1.773-1.773h262.36c0.979 0 1.773 0.794 1.773 1.773v180.82c0 0.978-0.79401 1.772-1.773 1.772z" fill="#9090f4"/>
</g>
<g transform="translate(3432.1 1226.6)">
<path d="m131.18 92.184h-262.36c-0.98 0-1.774-0.794-1.774-1.772v-180.82c0-0.979 0.79401-1.773 1.774-1.773h262.36c0.979 0 1.773 0.794 1.773 1.773v180.82c0 0.978-0.79401 1.772-1.773 1.772z" fill="#9090f4"/>
</g>
<g transform="translate(3816.2 1078.4)">
<path d="m131.18 240.38h-262.36c-0.98 0-1.774-0.79401-1.774-1.772v-477.2c0-0.979 0.79401-1.773 1.774-1.773h262.36c0.979 0 1.772 0.79399 1.772 1.773v477.2c0 0.978-0.793 1.772-1.772 1.772z" fill="#9090f4"/>
</g>
<g transform="translate(3413.3 274.68)">
<path d="m-517.06-113.11c0-17.734 14.378-32.11 32.113-32.11h969.89c17.735 0 32.113 14.376 32.113 32.11v226.22c0 17.735-14.378 32.113-32.113 32.113h-969.89" fill="#e1deff"/>
</g>
<g transform="translate(3029.2 615.09)">
<path d="m131.18 92.184h-262.36c-0.98 0-1.774-0.794-1.774-1.772v-180.82c0-0.979 0.79401-1.773 1.774-1.773h262.36c0.979 0 1.773 0.794 1.773 1.773v180.82c0 0.978-0.79399 1.772-1.773 1.772z" fill="#fe5364"/>
</g>
<g transform="translate(3029.2 615.09)">
<path d="m131.18 92.184h-262.36c-0.98 0-1.774-0.794-1.774-1.772v-180.82c0-0.979 0.79401-1.773 1.774-1.773h262.36c0.979 0 1.773 0.794 1.773 1.773v180.82c0 0.978-0.79399 1.772-1.773 1.772z" fill="#e1deff"/>
</g>
<g transform="translate(3413.3 615.09)">
<path d="m131.18 92.184h-262.36c-0.98001 0-1.774-0.794-1.774-1.772v-180.82c0-0.979 0.79399-1.773 1.774-1.773h262.36c0.979 0 1.773 0.794 1.773 1.773v180.82c0 0.978-0.79399 1.772-1.773 1.772z" fill="#e1deff"/>
</g>
<g transform="translate(3797.4 615.09)">
<path d="m131.18 92.184h-262.36c-0.98 0-1.774-0.794-1.774-1.772v-180.82c0-0.979 0.79401-1.773 1.774-1.773h262.36c0.979 0 1.772 0.794 1.772 1.773v180.82c0 0.978-0.793 1.772-1.772 1.772z" fill="#fe5c60"/>
</g>
<g transform="translate(3797.4 615.09)">
<path d="m131.18 92.184h-262.36c-0.98 0-1.774-0.794-1.774-1.772v-180.82c0-0.979 0.79401-1.773 1.774-1.773h262.36c0.979 0 1.772 0.794 1.772 1.773v180.82c0 0.978-0.793 1.772-1.772 1.772z" fill="#e1deff"/>
</g>
<g transform="translate(3029.2 911.47)">
<path d="m131.18 92.184h-262.36c-0.98 0-1.774-0.794-1.774-1.772v-180.82c0-0.979 0.79401-1.773 1.774-1.773h262.36c0.979 0 1.773 0.794 1.773 1.773v180.82c0 0.978-0.79399 1.772-1.773 1.772z" fill="#e1deff"/>
</g>
<g transform="translate(3413.3 911.47)">
<path d="m131.18 92.184h-262.36c-0.98001 0-1.774-0.794-1.774-1.772v-180.82c0-0.979 0.79399-1.773 1.774-1.773h262.36c0.979 0 1.773 0.794 1.773 1.773v180.82c0 0.978-0.79399 1.772-1.773 1.772z" fill="#fe5364"/>
</g>
<g transform="translate(3413.3 911.47)">
<path d="m131.18 92.184h-262.36c-0.98001 0-1.774-0.794-1.774-1.772v-180.82c0-0.979 0.79399-1.773 1.774-1.773h262.36c0.979 0 1.773 0.794 1.773 1.773v180.82c0 0.978-0.79399 1.772-1.773 1.772z" fill="#e2deff"/>
</g>
<g transform="translate(3029.2 1207.8)">
<path d="m131.18 92.184h-262.36c-0.98 0-1.774-0.793-1.774-1.772v-180.82c0-0.979 0.79401-1.773 1.774-1.773h262.36c0.979 0 1.773 0.794 1.773 1.773v180.82c0 0.979-0.79399 1.772-1.773 1.772z" fill="#fe5364"/>
</g>
<g transform="translate(3029.2 1207.8)">
<path d="m131.18 92.184h-262.36c-0.98 0-1.774-0.793-1.774-1.772v-180.82c0-0.979 0.79401-1.773 1.774-1.773h262.36c0.979 0 1.773 0.794 1.773 1.773v180.82c0 0.979-0.79399 1.772-1.773 1.772z" fill="#e1deff"/>
</g>
<g transform="translate(3413.3 1207.8)">
<path d="m131.18 92.184h-262.36c-0.98001 0-1.774-0.793-1.774-1.772v-180.82c0-0.979 0.79399-1.773 1.774-1.773h262.36c0.979 0 1.773 0.794 1.773 1.773v180.82c0 0.979-0.79399 1.772-1.773 1.772z" fill="#e1deff"/>
</g>
<g transform="translate(3797.4 1059.7)">
<path d="m131.18 240.38h-262.36c-0.98 0-1.774-0.793-1.774-1.772v-477.2c0-0.979 0.79401-1.773 1.774-1.773h262.36c0.979 0 1.772 0.79399 1.772 1.773v477.2c0 0.979-0.793 1.772-1.772 1.772z" fill="#fba70b"/>
</g>
<g transform="translate(3796.4 1058.6)">
<path d="m-113.11 228.11v-416.52c0-17.737 14.378-32.115 32.114-32.115h201.68c3.958 0 7.705 0.814 11.206 2.123-4.559-12.187-16.214-20.909-29.992-20.909h-201.68c-17.737 0-32.113 14.378-32.113 32.113v416.52c0 13.778 8.722 25.433 20.907 29.992-1.309-3.501-2.121-7.248-2.121-11.206z" fill="#f8c110"/>
</g>
<g transform="matrix(.71112 0 0 .71112 89.873 378.38)">
<g transform="translate(314.11 973.83)">
<path d="m-249.98-330.45s-63.888 661.89-63.888 661.89l627.73 0.13901s-60.716-663.16-60.716-663.16l-503.12 1.123z" fill="#fba70b"/>
</g>
<g transform="translate(197.14 703.91)">
<path d="m-23.551 0.059v-0.017c-0.015999-10.964 10.52-19.918 23.501-19.953h0.034c12.967 0 23.534 8.891 23.567 19.87 0.015999 10.961-10.518 19.918-23.501 19.952h-0.033c-12.967 0-23.535-8.891-23.568-19.852zm23.519-12.377c-8.793 0.033-15.926 5.571-15.926 12.341 0.034 6.79 7.183 12.293 15.959 12.293h0.031c8.793-0.03 15.944-5.569 15.928-12.339-0.035-6.789-7.184-12.295-15.959-12.295h-0.033zm-19.82 12.36h0.098-0.098z" fill="#5751bb"/>
</g>
<g transform="translate(431.09 703.37)">
<path d="m-23.543 0.048 3.796-0.016-3.796 0.016c-0.016001-4.716 1.941-9.285 5.507-12.881 4.454-4.488 11.011-7.069 17.961-7.069h0.099c12.935 0 23.487 8.873 23.518 19.836 0.016001 5.474-2.515 10.568-7.133 14.347-4.387 3.615-10.188 5.604-16.352 5.621h-0.033c-12.966 0-23.533-8.892-23.567-19.854zm23.485-12.358c-4.944 0.017-9.548 1.776-12.587 4.85-1.513 1.51-3.322 4.042-3.304 7.478 0.033 6.784 7.182 12.291 15.957 12.291h0.033c4.405-0.016 8.497-1.395 11.554-3.893 2.809-2.319 4.356-5.309 4.356-8.448-0.035-6.77-7.167-12.278-15.943-12.278h-0.066z" fill="#5751bb"/>
</g>
<g transform="translate(313.75 771.87)">
<path d="m-6.549 76.749c2.187 0 4.405-0.034004 6.673-0.116 42.994-1.429 75.779-15.282 97.439-41.151 35.861-42.828 27.742-102.55 27.381-105.07-0.609-4.143-4.503-7.164-8.597-6.425-4.156 0.592-7.049 4.438-6.457 8.579 0.082001 0.56 7.478 55.699-24.045 93.25-18.767 22.352-47.79 34.347-86.232 35.629-37.224 1.102-64.966-8.562-83.438-29.122-33.51-37.306-25.26-98.606-25.177-99.231 0.591-4.141-2.302-8.003-6.459-8.597-4.01-0.607-8.004 2.285-8.596 6.442-0.393 2.795-9.367 68.814 28.861 111.48 20.443 22.795 50.24 34.331 88.647 34.331z" fill="#5751bb"/>
</g>
</g>
</g>
<g transform="translate(1566.5 2445.9)" display="block">
<g transform="translate(1080.3 2391.1)">
<path d="m519.65-1e-3c0 45.207-232.65 81.854-519.65 81.854-286.99 0-519.64-36.647-519.64-81.854 0-45.205 232.65-81.852 519.64-81.852 286.99 0 519.65 36.647 519.65 81.852z" fill="#d5d2ff"/>
</g>
<g transform="translate(943.35 1962.1)">
<path d="m-63.107-168.54c-0.040001 0.179-0.041 0.179-0.079002 0.362-36.384 172.55-19.056 409.58-27.162 539.47 1.902 0.53101 49.448 6.478 49.448 6.478s112.54-547.49 132.97-652.33c1.38-7.334 2.326-14.207 2.603-20.304 4.898-78.891-66.201-82.912-106.28-17.698-6.617 10.696-12.791 22.476-18.326 35.211-2.26 5.155-4.363 10.356-6.544 15.922l-0.037998 0.181c-6.617 17.061-12.511 35.479-17.65 55.076l-0.423 2.004c-1.666 5.515-3.016 11.119-4.365 16.723l-0.27 1.277c-1.387 5.785-2.614 11.615-3.882 17.631z" fill="#ffb8af"/>
</g>
<g transform="translate(989.02 1392.3)">
<path d="m104.3-218.02c-1.332 14.274-8.946 82.224-18.082 162.35-7.803 67.376-16.368 143.32-23.03 203.46-4.948 45.11-8.564 81.081-10.088 98.02-0.76 10.469-2.092 19.985-3.996 29.123v0.37799c-17.129 78.797-71.565 83.363-104.68 65.096-4.568-2.285-8.946-5.522-12.562-8.565-7.613-6.852-12.753-15.227-14.085-23.222v-0.189c-2.094-16.182-4.187-38.258-6.091-64.524v-0.37999c-0.18999-0.19301-0.18999-0.192-0.18999-0.382l-0.19-0.56801c-3.997-51.201-7.423-117.06-10.467-181.2-3.618-78.798-5.901-154.74-6.471-197.56-0.19099-2.475-0.19199-4.758-0.381-7.042-0.573-131.33 120.1-215.46 195.09-174.72 0.952 0.38 1.712 0.759 2.665 1.333 1.141 0.759 2.094 1.331 2.854 1.712 8.566 5.711 11.419 25.312 11.609 47.772 0.381 16.37-0.759 34.259-1.902 49.107z" fill="#ffb8af"/>
</g>
<g transform="translate(901.23 1722.5)">
<path d="m8.451-52.655-9.181-34.396c-0.038 0.181-0.038 0.181 0.081 0.408 0.207 7.775 1.096 63.201-11.405 120.1l-0.422 2.004c-1.312 5.421-2.699 11.206-4.365 16.723l-0.27 1.277c-2.592 9.114-3.784 14.764-3.883 17.631-0.040001 0.17899-0.040001 0.17899-0.078001 0.362-0.103 15.598 33.114-53.653 40.724-69.856 0.936-2.054 1.523-3.242 1.523-3.242l-8.996-36.078-3.728-14.932z" fill="#ffb8af"/>
</g>
<g transform="translate(1228.7 1966.6)">
<path d="m-59.065-140.11c-0.0030022 0.189-0.0040016 0.189-0.0080032 0.38-3.449 180.66 52.351 393.09 67.102 524.3 1.799 0.055023 45.573-5.837 45.573-5.837s8.332-553.47 8.919-662.83c-0.0040016-7.636-0.318-14.709-1.101-20.84-8.982-79.688-73.611-66.032-98.598 8.786-4.137 12.28-7.69 25.531-10.511 39.57-1.157 5.692-2.167 11.386-3.185 17.463l-0.0019989 0.19c-3.056 18.614-5.234 38.398-6.531 59.166l-0.041 2.097c-0.564 5.9-0.826 11.81-1.089 17.72l-0.024002 1.333c-0.269 6.101-0.384 12.206-0.504 18.504z" fill="#ffb8af"/>
</g>
<g transform="translate(1170.4 1400.1)">
<path d="m36.781 352.73c-4.655-1.229-8.932-3.214-12.701-5.534-8.154-4.925-14.244-11.794-16.613-19.571 0 0 0.017-0.20099 0.017-0.20099-4.734-15.558-10.387-37.291-16.664-62.94-0.14-0.21899-0.139-0.21899-0.122-0.418 0 0-0.266-0.642-0.266-0.642-12.202-49.838-26.66-114.5-40.156-177.42-16.573-77.452-31.602-152.47-39.333-195.06-0.601-2.297-7.284-33.3-7.729-35.578-23.155-131.98 79.781-217.96 154.59-192.81 1.081 0.34698 2.005 0.67297 2.929 1 15.035 6.046 19.214 58.945 22.594 94.692 3.379 35.748 28.81 406.32 35.15 473.32 1.022 10.625 1.468 20.568 1.319 30.026-1.791 82.854-50.061 100.99-83.011 91.126z" fill="#ffb8af"/>
</g>
<g transform="translate(1178.2 1753.3)">
<path d="m-3-57.195s-14.096-31.93-14.096-31.93c-0.0039997 0.19-0.0039997 0.19 0.143 0.386 1.504 7.683 11.71 62.589 10.118 122.29l-0.039 2.098c-0.261 5.718-0.526 11.818-1.089 17.72l-0.023 1.333c-0.786 9.711-0.9 15.626-0.507 18.503-0.0030003 0.18999-0.0019999 0.18999-0.0059996 0.38 2.554 15.541 20.682-61.59 24.777-79.596 0.494-2.278 0.821-3.601 0.821-3.601s-14.215-33.655-14.215-33.655l-5.884-13.927z" fill="#ffb8af"/>
</g>
<g transform="translate(1070.6 1199.9)">
<path d="m-124.8-279.1s-96.88 123.06-86.933 246.7c4.142 51.467 10.524 96.815 16.385 148.6 0.84599 7.461 12.461 116.19 9.183 116.3 0 0 199.6 61.676 392.42-19.132 0-13.173 15.421-266.25-88.744-507.53-125.72 17.759-242.31 15.067-242.31 15.067z" fill="#5146ae"/>
</g>
<g transform="translate(1314.9 2376.5)">
<path d="m77.862 27.062c-39.604 7.125-81.936-4.013-99.287-1-14.338 2.443-51.178 11.791-64.973-0.607-13.794-12.398-11.563-56.13 4.285-61.948 0 0 3.669 1.397 10.286 2.476 9.885 1.496 26.345 2.219 46.883-3.836 30.146 12.394 31.26 17.811 65.518 24.728 14.921 3.047 32.237 8.017 43.65 13.25 14.783 6.759 15.969 22.941-6.362 26.937z" fill="#5045ae"/>
</g>
<g transform="translate(917.79 2366.4)">
<path d="m47.379 54.547c-39.686-6.675-64.812-28.625-82.164-31.655-14.319-2.545-50.415-9.573-54.197-24.367-2.813-11.007 8.083-56.736 24.964-56.857 0 0 2.981 2.554 8.844 5.807 8.8 4.749 24.045 10.987 45.423 12.231 24.184 21.85 23.401 27.322 53.308 45.408 13.014 7.91 27.634 18.439 36.607 27.219 11.631 11.357-10.418 25.999-32.785 22.214z" fill="#5045ae"/>
</g>
<g transform="matrix(.99766 -.068406 .068406 .99766 -61.618 74.115)">
<g transform="matrix(.99017 -.13988 .13988 .99017 -48.758 169.25)">
<g transform="translate(1452.3 633.92)">
<path d="m297.71-24.864c0.397 5.833 9.284 10.853 3.368 23.133-13.193 27.39-54.295 65.339-103.44 47.884-2.139 0.761-271.54 156.49-292.3 156.49-20.757 0-162.14-133.79-208.39-299.34-11.034-39.497-6.741-85.963 30.271-105.95 0 0 30.837 7.466 50.873 45.281 30.63 57.806 122.34 249.25 142.67 256.49 25.33-16.887 148.71-53.548 248.61-95.99 22.249-9.707 30.808-17.892 38.723-32.357 7.487-14.657 25.887-48.723 41.504-64.711 5.348-5.473 64.462-37.142 64.473-26.746 0.0050049 6.024-17.354 21.953-39.982 36.296-11.595 7.353-16.985 20.967-19.24 26.779-3.851 7.613 42.373-6.359 46.221 9.63 0.64102 2.283-3.583 20.065-3.368 23.11z" fill="#ffb8af"/>
</g>
<g transform="translate(1220.9 543.32)">
<path d="m-52.158-116.92c34.961 8.167 63.751 30.612 80.451 62.394 4.256 8.1 7.612 16.636 10.96 25.152 14.347 36.5 34.1 69.545 48.445 106.04-19.625 15.827-43.361 23.105-63.359 30.548-18.745 6.98-39.06 9.705-58.981 7.916-3.393-0.30601-6.837-0.758-9.931-2.186-4.149-1.918-7.318-5.425-10.323-8.87-6.143-7.045-12.122-14.233-17.933-21.556-4.982-6.279-9.953-12.876-12.039-20.617-2.831-10.505 0.0029984-21.608 2.831-32.114" fill="#7762ef"/>
</g>
<g transform="translate(1229.6 590.3)">
<path d="m-25.65-64.187c-1.311-1.563-2.707-3.189-4.609-3.938-3.59-1.411-7.785 0.951-9.689 4.304-1.902 3.354-2.054 7.393-2.012 11.25 0.163 14.798 2.488 29.57 6.88 43.703l-4.589 76.996c0.035 0.052002 0.077 0.098 0.111 0.152 18.692 1.139 37.613-1.509 55.163-8.042 8.318-3.097 17.31-6.297 26.358-9.963-9.241-43.392-38.829-80.144-67.613-114.46z" fill="#5851bc"/>
</g>
</g>
<g transform="translate(1010.4 423.3)">
<path d="m74.245-73.346s-1.038 48.206 6.368 51.356c14.697 6.25 31.153 9.636 31.153 9.636s0.492 99.772 0.492 99.772-133.01-20.056-133.01-20.056l-91.509-50.934s95.099-31.524 95.936-41.008c0.839-9.484-5.223-62.838-5.223-62.838" fill="#ffb8af"/>
</g>
<g transform="translate(1054 687.3)">
<path d="m195.16-50.605c-0.765 35.256-19.518 56.714-46.417 86.427-3.403 5.289-11.76 83.867-14.609 136.11-1.482 27.187 10.13 44.268 0 46.504-38.721 33.774-178.26 61.133-242.27 15.029 6.714-56.828-18.738-181.99-35.913-245.64-2.681-9.799-5.03-18.066-7.171-24.45-15.991-48.339-44.861-203.36-23.497-210.12 4.256-1.348 10.878-3.092 18.534-5.403 33.455-10.096 82.888-27.414 82.888-27.414s28.996 85.771 104.38 96.126c41.151-16.946 37.52-68.99 37.029-92.915 13.457 3.722 19.389 7.42 61.098 19.774 11.692 16.852 1.605 52.036 20.491 104.48 4.698 13.046 46.388 58.569 45.459 101.5z" fill="#7762ef"/>
</g>
<g transform="matrix(.99017 -.13988 .13988 .99017 -50.387 132.36)">
<g transform="translate(646.17 645.47)">
<path d="m-259.36-75.261s36.446-43.367 36.446-43.367l222.35 198.83s108.56-144.51 138.42-189.63c32.831-49.61 62.436-92.032 110.45-100.34 11.054 6.827-3.74 185.02-9.513 189.33-67.081 50.18-197.62 212.08-239.14 220.49-47.947 9.71-259.01-275.32-259.01-275.32z" fill="#ffb8af"/>
</g>
<g transform="translate(864.73 558.39)">
<path d="m46.176-130.57s-45.432 0.57199-64.966 16.658c-19.533 16.087-112.85 164-112.85 164s-2.397 27.955 24.538 51.379c28.82 25.059 67.21 29.091 67.21 29.091s46.851-46.621 73.252-67.831c16.452-13.217 74.671-89.133 74.671-89.133l-61.858-104.17z" fill="#7762ef"/>
</g>
<g transform="translate(380.82 527.23)">
<path d="m98.617 50.14s-52.262-41.896-55.828-53.371c-3.566-11.474-4.335-23.74-8.644-34.957-6.287-16.364-20.047-29.41-36.259-36.081-13.101-5.388-6.686-9.829-20.716-7.116-21.188 4.095-31.231 24.856-39.697 41.083-36.09 69.167 62.758 82.276 66.241 82.416 7.22 0.289 43.99 41.983 43.99 41.983" fill="#ffb8af"/>
</g>
<g transform="translate(375.66 488.86)">
<path d="m-61.294 55.128 35.792 23.881c4.691 3.13 11.045 1.695 13.934-3.146l78.626-131.74-46.618-26.261-84.402 123.51c-3.096 4.528-1.896 10.713 2.668 13.758z" fill="#8484ee"/>
</g>
<g transform="translate(207.27 226.33)">
<path d="m-20.778 38.069 12.324 8.397s49.811-72.589 49.811-72.589l-12.321-8.397c-17.525-11.946-42.882-5.38-56.639 14.665-13.754 20.047-10.7 45.979 6.825 57.924z" fill="#c4c4f7"/>
</g>
<g transform="translate(281.67 249.44)">
<path d="m-140.73 103.44s229.12 34.787 229.12 34.787 52.336-76.265 52.336-76.265l-115.62-200.18s-165.84 241.66-165.84 241.66z" fill="#c4c4f7"/>
</g>
<g transform="translate(273.26 331.91)">
<path d="m-117.67 24.146 214.48 31.609 20.858-30.398-180.5-81.112s-54.832 79.901-54.832 79.901z" fill="#babaf1"/>
</g>
<g transform="translate(486.36 410.96)">
<path d="m-22.069 32.159c12.257 8.354 29.989 3.762 39.609-10.255l9.304-13.557c9.617-14.02 7.482-32.154-4.775-40.507-12.255-8.353-29.988-3.76-39.606 10.255l-9.304 13.559c-9.62 14.017-7.483 32.153 4.772 40.505z" fill="#c4c4f7"/>
</g>
<g transform="translate(482.51 418.81)">
<path d="m-13.677-29.737-9.29 13.538c-9.641 14.052-7.479 32.155 4.774 40.505 12.254 8.352 29.966 3.796 39.609-10.257l9.29-13.536c0.706-1.031 1.349-2.104 1.902-3.184-9.893 11.668-25.943 15.035-37.296 7.297-11.353-7.738-14.021-23.864-6.699-37.283-0.811 0.905-1.582 1.889-2.29 2.92z" fill="#babaf1"/>
</g>
<g transform="translate(222.29 230.98)">
<path d="m-88.813 129.42c7.196 4.905 17.611 2.208 23.26-6.022 0 0 157.17-229.03 157.17-229.03 5.649-8.232 4.394-18.883-2.802-23.79-7.198-4.905-17.611-2.207-23.26 6.025l-157.17 229.03c-5.649 8.232-4.392 18.881 2.804 23.788z" fill="#a3a3f7"/>
</g>
<g transform="translate(221.74 235.61)">
<path d="m93.391-129.69-130.9 190.74c-5.649 8.23-16.064 10.927-23.26 6.022-1.696-1.155-2.998-2.675-4.021-4.361l-26.279 38.289c-5.647 8.233-4.391 18.885 2.805 23.789 7.196 4.905 17.611 2.208 23.26-6.024l157.17-229.03c4.318-6.293 4.542-13.954 1.222-19.426z" fill="#8484ee"/>
</g>
<g transform="translate(436.19 376.76)">
<path d="m-45.882 50.996 14.838 10.11c21.882 14.914 53.542 6.716 70.716-18.312l14.733-21.466c17.174-25.028 13.359-57.41-8.525-72.323l-14.835-10.111c-21.88-14.914-53.54-6.716-70.714 18.312l-14.735 21.469c-17.174 25.028-13.359 57.407 8.522 72.321z" fill="#a3a3f7"/>
</g>
<g transform="translate(415.89 407.65)">
<path d="m-33.29-53.389s-22.064 32.151-22.064 32.151c-5.426 7.909-4.248 18.16 2.7 22.896l68.985 47.018c6.913 4.713 16.959 2.112 22.386-5.795l22.062-32.152c-5.428 7.908-15.473 10.511-22.386 5.796l-68.987-47.016c-6.946-4.736-8.124-14.988-2.696-22.898z" fill="#8484ee"/>
</g>
<g transform="translate(354.34 483.83)">
<path d="m-32.317 27.109c-2.838-20.125 1.647-39.311 12.591-53.852 3.773-5.012 8.272-9.467 12.834-13.843 2.203-2.112 4.517-4.262 7.749-5.11 5.019-1.319 11.334 0.772 16.741 3.787 5.849 3.263 11.445 8.006 13.74 13.644 3.817 9.379-2.686 17.198-10.079 21.873-0.761 0.48-1.566 0.985-1.845 1.828-0.42 1.266 0.461 2.853 1.267 4.263 3.343 5.849 6.003 12.214 5.306 17.877-0.698 5.666-5.658 10.252-12.29 9.203-2.71-0.429-6.307-1.478-7.203 0.573-0.296 0.679-0.152 1.53-0.049 2.34 0.732 5.734-0.763 11.155-4.161 15.097-0.842 0.974-1.867 1.896-3.323 2.086-1.087 0.14-2.301-0.141-3.473-0.473-4.211-1.186-8.379-3.039-12.239-5.44" fill="#ffb8af"/>
</g>
<g transform="translate(401.38 493.35)">
<path d="m21.872 33.493c-1.259-7.696-3.978-20.308-4.266-28.1-0.775-21.086-11.979-41.993-30.234-52.573-1.506-0.873-3.198-1.701-4.911-1.404-2.17 0.377-3.684 2.529-4.008 4.708-0.325 2.179 0.29 4.379 0.961 6.477 2.127 6.651 11.556 19.134 8.64 25.984-4.354 10.222-7.843 21.349-7.462 32.581 0.337 9.934 4.975 26.085 16.75 27.714" fill="#ffb8af"/>
</g>
<g transform="translate(180.61 54.72)">
<path d="m-23.048-54.345 46.096 108.69" fill-opacity="0" stroke="#c4c4f7" stroke-linecap="round" stroke-linejoin="round" stroke-width=".75"/>
</g>
<g transform="translate(108.54 132.44)">
<path d="m-47.237-35.402 94.474 70.804" fill-opacity="0" stroke="#c4c4f7" stroke-linecap="round" stroke-linejoin="round" stroke-width=".75"/>
</g>
<g transform="translate(59.123 234.47)">
<path d="m-58.748-5.77 117.5 11.54" fill-opacity="0" stroke="#c4c4f7" stroke-linecap="round" stroke-linejoin="round" stroke-width=".75"/>
</g>
</g>
<g transform="matrix(.99017 -.13988 .13988 .99017 -40.053 154.69)">
<g transform="translate(1064.6 250.18)">
<path d="m116.22-97.139s7.619 93.196-8.284 142.03c-11.78 36.179-60.123 69.943-100.54 69.49-111.28 0.0049973-131.24-151.15-130.66-158.46 0.58-7.314 164.12-70.762 164.12-70.762l75.36 17.7z" fill="#ffb8af"/>
</g>
<g transform="translate(1029.3 223.31)">
<path d="m-145.85 206.3c-2.479-1.321-4.907-2.744-7.269-4.153-12.738-7.608-24.466-15.619-29.833-30.105-7.733-20.882-11.439-52.921-0.61899-73.18 7.321-13.706 21.101-22.68 30.534-35.029 13.036-17.071 16.904-39.389 17.993-60.842 1.087-21.45-0.17-43.194 4.336-64.195 7.703-35.91 17.928-70.103 45.604-93.238 44.319-37.045 133.17-59.007 181.49-17.683 8.789 7.517 10.509 13.543 22.378 14.693 15.913 1.543 26.24 3.579 40.549 11.845 15.855 9.163 35.076 22.09 32.848 42.894-1.541 14.407-17.913 37.207-30.222 43.992-5.162 2.845-11.19 3.716-17.084 3.831-18.831 0.365-34.463-11.895-52.948-9.908-9.033 0.969-17.493 5.837-23.191 12.867-6.666 8.221-5.766 19.686-13.539 27.372-12.476 12.33-31.811 11.293-46.598 19.315-2.449 1.327-4.954 2.845-6.367 5.247-1.38 2.347-1.516 5.198-1.617 7.92-0.286 7.783-0.572 15.566-0.858 23.349-7.331-3.226-8.097-13.666-14.145-18.917-5.828-5.06-15.344-3.669-21.193 1.37-5.847 5.038-8.669 12.743-10.215 20.305-1.861 9.099 1.333 18.738 4.124 27.89 4.836 15.863 18.429 30.147 29.406 19.665 7.963 11.711-0.741 31.271-1.031 44.524-0.23 10.507-0.04 31.333 9.789 38.237 9.032 6.343 23.344 1.527 23.892 17.884 0.502 14.967-14.475 26.662-29.34 28.491-14.863 1.83-29.556-3.394-43.912-7.66-14.354-4.263-30.07-7.582-44.027-2.157-8.46 3.288-15.772 9.636-24.723 11.126-8.379 1.395-16.55-1.679-24.208-5.75z" fill="#453087"/>
</g>
</g>
</g>
</g>
<g transform="translate(5106.2 1069.4)" display="block">
<g transform="translate(799.55 354.45)">
<path d="m68.733-104.8c1.435 28.344-0.577 77.708 7.537 85.018 8.114 7.31 34.295 6.176 34.295 6.176s-93.635 118.41-102.01 111.9c-8.371-6.513-119.12-96.758-94.231-101.42 24.889-4.656 49.244-3.666 48.54-16.549-0.709-12.882-1.415-25.766-2.121-38.649" fill="#ffb8af"/>
</g>
<g transform="translate(845.77 621.03)">
<path d="m129.32 260.94s-182.7 20.75-224.76 21.615c-42.06 0.86398-39.977-21.097-39.977-21.097-2.133-46.297-9.983-155.4-18.684-192.36-8.125-34.523-11.725-47.266-18.799-80.073-15.719-72.905-15.02-86.826-31.67-176.82l109.13-87.718s11.291 33.571 57.037 34.153c61.139 0.77701 80.164-42.054 80.164-42.054l148.85 98.827 13.968 240.39s-17.813 197.97-17.813 197.97" fill="#fba70b"/>
</g>
<g transform="matrix(.98822 .15301 -.15301 .98822 160.1 -53.601)">
<g transform="translate(491.5 1551.6)">
<path d="m-30.937-17.879s6.062 36.337 10.894 48.759c4.832 12.421 45.601 0.969 48.291-7.062 2.689-8.03-12.828-67.12-12.828-67.12" fill="#ec9c80"/>
</g>
<g transform="translate(450.84 1620.1)">
<path d="m83.099-34.427c3.526 13.401 7.973 39.107 7.973 39.107l-40.741 17.745-6.685-6.28s-10.101 12.25-22.603 18.026c-9.278 4.289-29.276 9.841-39.441 10.937-35.564 3.832-61.738-2.858-63.852-7.788-8.822-20.601 38.366-26.124 47.73-28.589 26.897-7.08 41.84-29.906 44.707-44.792 2.079-10.801-0.596-12.698 5.441-12.367 0 0 5.285-0.273 10.191 4.782 7.527 7.761 18.86 11.304 28.943 6.729 5.765-2.616 11.234-6.441 14.444-12.023 0 0 10.365 1.11 13.893 14.513z" fill="#38287b"/>
</g>
<g transform="translate(477.22 1216.8)">
<path d="m-44.598-153.16c9 25.795 31.07 58.852 39.472 95.182 27.755 119.97 37.393 281.12 44.435 380.83 0 0-13.327 25.589-56.025 6.105-63.799-157.56-175.18-476.9-174.15-546.17" fill="#452f86"/>
</g>
</g>
<g transform="translate(477.22 1216.8)">
<path d="m163.41-158.1c-63.697 12.521-143.65 13.428-208.01 4.936 9 25.795-147.3 5.219-146.27-64.055 1.309-88.193 221.44-109.48 382.76-131.21" fill="#452f86"/>
</g>
<g transform="translate(641.54 967.36)">
<path d="m280.29-85.222c50.726 37.043-281.19 176.57-281.19 176.57-36.818 7.238-72.669 10.479-108.79 10.385-3.424-6.585-6.62-13.33-8.091-20.585-1.953-9.634-0.913-19.662-2.598-29.346-3.274-18.844-16.805-34.771-33.156-44.691-16.354-9.918-35.359-14.536-54.243-17.577-44.879-7.232-123.24-2.163-123.24-2.163 99.751-73.535 303.88-83.164 398.95-89.204 18.205 29.994 205.09 11.296 212.36 16.608z" fill="#38287b"/>
</g>
<g transform="matrix(.99304 -.11778 .11778 .99304 -109.85 70.281)">
<g transform="translate(593.16 1640.5)">
<path d="m-27.385-22.989s-0.329 36.837 2.275 49.907c2.607 13.073 44.743 8.863 48.783 1.418 4.041-7.444-0.995-68.327-0.995-68.327" fill="#ec9c80"/>
</g>
<g transform="translate(539.4 1698.7)">
<path d="m89.626-17.279c1.15 13.809 1.072 39.895 1.072 39.895l-43.199 10.413s-5.498-7.343-5.498-7.343-12.071 10.313-25.385 13.835c-9.883 2.613-30.537 4.617-40.74 3.932-35.688-2.389-60.305-13.516-61.533-18.736-5.118-21.818 42.313-19.079 51.964-19.884 27.714-2.311 46.389-22.2 51.793-36.364 3.922-10.277 1.613-12.606 7.504-11.233 0 0 5.253 0.644 9.204 6.474 6.069 8.949 16.617 14.404 27.343 11.644 6.13-1.576 12.177-4.396 16.309-9.336 0 0 10.013 2.89 11.166 16.703z" fill="#38287b"/>
</g>
<g transform="translate(781.92 1261.9)">
<path d="m-240.98-302.38c-34.177 60.539 22.289 414.4 17.059 667.75 0 0 26.047 21.742 72.098 1.307 11.454-124.46 84.981-418.04 34.261-555.1 15.391-64.884-102.64-150.75-123.42-113.95z" fill="#452f86"/>
</g>
</g>
<g transform="translate(781.92 1261.9)">
<path d="m250.6-387.11s-101.52 10.064-224.86 7.17c-28.729-0.0069885-245.94 40.765-266.71 77.569-34.177 60.539 54.809 219.07 123.42 113.95 119.75 15.901 216.37 31.693 325.22-4.385 25.487-8.449 44.544-26.45 55.998-59.391 11.496-33.062 5.5-105.35-13.057-134.91z" fill="#452f86"/>
</g>
<g transform="matrix(.98573 -.16831 .16831 .98573 -47.597 129.6)">
<g transform="translate(112.54 406.29)">
<path d="m112.29 55.204s-42.202-29.771-43.709-42.278c-1.509-12.507-30.926-63.18-40.333-73.263-9.407-10.085-58.88-27.228-69.431-28.735-10.549-1.507-71.107 3.635-63.57 11.896 7.536 8.263 46.725 5.247 54.261 9.77l7.536 4.521s-7.536 10.22-4.523 16.415c3.015 6.195-12.937 15.705-6.907 26.261 6.028 10.558-2.438 9.819 2.959 20.831 8.909 18.178 31.708 28.305 37.736 23.334 4.526 10.769 21.829 32.712 38.044 31.205 16.217-1.509 55.61 35.418 55.61 35.418" fill="#ffb8af"/>
</g>
<g transform="translate(448.58 509.94)">
<path d="m301.74-164.43s-26.102 1.444-31.19 1.847c-21.77 1.724-43.926 4.593-64.511 12.211-29.605 10.96-50.49 38.485-74.579 60.019-23.199 20.735-143.43 135.3-165.86 139.52-22.428 4.222-219.28-130.69-219.28-130.69s-48.066 48.067-48.066 48.067 213.62 197.38 277.3 197.71c30.914 0.161 201.44-89.596 256-124.49l70.176-204.2z" fill="#fba70b"/>
</g>
<g transform="translate(404.86 570.68)">
<path d="m19.784 65.618c-43.904 2.483-245.15-151.2-268.48-169.14l-9.328 9.328s213.62 197.38 277.31 197.71c25.775 0.134 148.41-62.162 220.16-103.13l18.574-10.773-11.138-66.359s-180.48 139.72-227.1 142.36z" fill="#ce492f"/>
</g>
</g>
<g transform="matrix(.99752 .070406 -.070406 .99752 26.126 -62.408)">
<g transform="translate(867.38 627.6)">
<path d="m98.028-144.32c-24.33 110.04-28.639 196.15-35.511 274.82-85.445 33.16-120.23 82.529-203.83 119.75 0 0-66.019-10.965-72.955 13.94-4.001 14.363 77.288 25.795 77.288 25.795 77.487 0.36099 281.83-56.268 295.66-60.064 13.833-3.793 54.088-263.55 55.702-404.52 0.23-20.02-0.47499-41.746-12.997-57.366-6.589-8.217-15.836-13.85-25.214-18.645-54.525-27.878-94.905-35.491-156.02-39.374" fill="#ce492f"/>
</g>
<g transform="translate(902.32 628.77)">
<path d="m57.771-147.54c-2.01 117.62-10.36 171.45-8.065 289.07-59.054 12.615-140.8 79.473-224.39 116.69 0 0-4.974 16.596 2.759 30.599 6.377 2.333 282.02-64.778 303.94-84.973 19.725-18.174 45.811-238.64 47.424-379.62 0.23099-20.019-0.47401-41.745-12.997-57.365-6.589-8.218-15.836-13.851-25.214-18.645-54.524-27.879-94.904-35.492-156.02-39.375" fill="#fba70b"/>
</g>
<g transform="matrix(.99752 -.070406 .070406 .99752 -61.187 54.146)">
<g transform="translate(418.68 758.1)">
<path d="m-199 156.19h488.96l-87.671-285.82c-4.844-15.783-19.421-26.559-35.928-26.559h-428.21c-16.389 0-28.108 15.854-23.301 31.525l86.148 280.86z" fill="#a3a3f7"/>
</g>
<g transform="translate(405.18 758.1)">
<path d="m-191.64 156.19h481.6l-87.671-285.82c-4.842-15.783-19.418-26.559-35.928-26.559h-428.21c-16.39 0-28.11 15.854-23.302 31.525l83.99 273.82c1.282 4.185 5.145 7.039 9.521 7.039z" fill="#7974d1"/>
</g>
<g transform="translate(672.78 904.85)">
<path d="m64.811-9.955c-9.184-11.568-25.923-13.242-40.687-12.879-10.925 0.268-21.833 1.135-32.664 2.604-4.933 0.668-10.611 1.825-11.134 7.175-0.526 5.349 23.947-0.0079994 36.78 3.703-25.135 2.157-50.398 2.844-75.611 2.054-2.935-0.092-5.967-0.188-8.697 0.897-2.728 1.083-5.085 3.689-4.899 6.622 0.144 2.291 1.751 4.218 3.459 5.752 7.044 6.338 16.675 8.844 26.009 10.478 38.557 6.745 79.075 5.581 114.92-10.148" fill="#ffb8af"/>
</g>
<g transform="translate(392.76 763.02)">
<path d="m69.33-1e-3c1.753 25.068-27.866 45.39-66.155 45.39-38.29 0-70.751-20.322-72.505-45.39-1.753-25.066 27.866-45.388 66.156-45.388 38.289 0 70.751 20.322 72.504 45.388z" fill-opacity="0" stroke="#a3a3f7" stroke-miterlimit="10"/>
</g>
<g transform="translate(392.76 763.02)">
<path d="m44.021 0c1.114 13.954-17.694 25.263-42.006 25.263-24.312 0-44.925-11.309-46.037-25.263-1.113-13.952 17.694-25.263 42.007-25.263 24.312 0 44.924 11.311 46.036 25.263z" fill="#a3a3f7"/>
</g>
</g>
</g>
<g transform="matrix(.9806 -.19602 .19602 .9806 -42.591 163.18)">
<g transform="translate(793.73 183.29)">
<path d="m76.616 40.684c-3.308 14.278-7.612 28.324-12.874 42.002-9.647 25.076-23.874 34.083-50.411 34.713-18.647 0.448-37.293 0.891-55.94 1.335-14.316 0.341-32.14 0.821-43.698-9.221-11.464-9.96-11.704-26.728-14.245-40.516-3.254-17.65-5.901-35.411-7.941-53.243-3.992-34.921-5.644-70.108-4.926-105.25 0.098-4.826 0.244-9.682 1.251-14.403 0.411-1.919 1.011-3.896 2.398-5.285 1.726-1.728 4.304-2.208 6.716-2.586 34.942-5.514 70.395-7.785 105.76-6.776 24.976 0.713 51.441 3.63 71.211 18.909 19.903 15.383 29.341 40.371 37.846 64.048 1.366 3.803 2.379 8.868-0.922 11.2" fill="#ffb8af"/>
</g>
<g transform="translate(727.36 177.65)">
<path d="m56.869-28.89c-0.922-4.396-10.69-5.267-20.496-4.034-9.808 1.234-35.955 4.523-41.331 8.709-5.377 4.187-5.056 7.203-7.929 7.516-2.807 0.307-3.012-2.629-9.257-5.356-6.247-2.722-21.337-0.825-31.144 0.41-9.804 1.234-19.122 3.407-18.927 7.897 0.196 4.488 1.917 12.296 3.918 13.548 2.003 1.253 1.996 1.032 9.714 18.766 4.314 9.911 10.928 15.591 23.618 12.826 16.133-3.511 17.159-21.895 18.407-29.574 1.246-7.68 2.401-8.815 4.853-9.138 2.506-0.324 4.137 0.485 7.247 7.616 3.11 7.131 5.362 23.575 21.897 24.504 21.648 1.218 31.025-6.197 34.023-20.077 4.064-18.815 3.133-18.877 4.764-20.587 0.751-0.788 16.185 1.373 16.185 1.373s-0.36301-5.618-0.36301-5.618-14.945-7.671-15.179-8.781zm-78.614 37.88c-0.486 9.603-5.276 18.393-15.944 19.736-9.934 1.249-14.487-4.025-19.852-16.737-4.669-11.064-4.899-19.869-3.212-22.915 1.686-3.05 7.036-2.951 19.365-3.728 12.329-0.777 16.437-1.038 18.437 4.385 0.735 1.994 1.695 9.656 1.206 19.259zm70.568-10.38c-2.05 13.644-7.052 20.203-20.647 21.831-19.273 2.307-22.985-5.296-25.835-14.481-2.85-9.183-3.818-16.843-3.6-18.956 0.596-5.749 4.642-6.516 16.777-8.816 12.137-2.3 28.353-5.113 30.741-2.577 2.389 2.536 4.348 11.123 2.564 22.999z" fill="#473999"/>
</g>
<g transform="translate(773.14 135.06)">
<path d="m141.79-16.35c-1.163-10.015-2.968-19.767-5.379-28.997-6.601-25.271-22.058-46.703-45.173-59.21-29.476-15.948-69.935-19.226-102.22-10.181-18.702 5.24-25.647 15.095-35.278 14.813-7.381-0.217-16.604-5.182-26.17-8.616-73.123-26.272-60.855 45.3-53.063 64.958 3.446 8.692 20.025 15.019 22.237 18.634 2.213 3.614 1.963 21.323 3.366 29.119 1.404 7.795 9.104 10.769 9.104 10.769s0.40701-23.038 0.775-26.169c0.967-8.215 3.663-16.725 10.799-21.582 7.453-5.074 17.645-5.868 26.299-7.384 9.03-1.583 51.011 6.488 53.821 8.902 13.652 11.721 17.171 38.453 21.002 54.169 1.789 7.339 3.648 12.277 6.638 12.161 2.268-21.635 9.772-22.188 22.721-14.791 6.91 3.949 10.778 17.648 11.013 29.258 0.276 13.749-7.396 28.892-21.812 31.966-5.169 1.103 10.412 30.624 17.619 37.996 2.374 2.425 4.71 4.961 7.63 6.694 2.7 1.603 5.773 2.444 8.805 3.266 3.483 0.946 6.965 1.891 10.448 2.836 4.699 1.276 9.675 2.553 14.36 1.23 7.712-2.177 11.781-10.356 15.262-17.573 5.717-11.86 12.285-23.343 16.958-35.65 11.009-28.994 14.002-64.173 10.24-96.618z" fill="#473999"/>
</g>
</g>
</g>
<g transform="translate(5944.1 2488.9)" display="block">
<g transform="translate(683.71 2565)">
<path d="m519.65 0c0 30.255-232.65 54.779-519.65 54.779-286.99 0-519.64-24.524-519.64-54.779s232.65-54.779 519.64-54.779c286.99 0 519.65 24.524 519.65 54.779z" fill="#d5d2ff"/>
</g>
<g transform="matrix(.99978 .020985 -.020985 .99978 54.013 -18.262)">
<g transform="matrix(.99962 -.027447 .027447 .99962 -34.435 11.909)">
<g transform="translate(371.8 2515)">
<path d="m33.029-27.683c-4.367 8.489-25.261 28.12-54.223 41.065-28.934 12.916-90.296 18.998-56.212 30.381 34.082 11.378 73.821 4.488 93.966 1.264 20.112-3.252 39.621-3.677 63.375-3.825 31.315-0.212 31.554-2.138 27.337-37.453-5.808-48.596-60.152-58.891-74.243-31.432z" fill="#9aa2f4"/>
</g>
<g transform="translate(489.34 2128.1)">
<path d="m-109.25-283.17c-4.094-98.094 102.27-85.231 141.49-11.954 81.108 151.54-29.911 500.52-44.593 665.88-15.236 5.91-40.798 10.505-56.136 3.505-10.575-4.827-16.321-18.046-16.321-18.046 2.351-202.85-20.05-534.5-24.439-639.39z" fill="#4941a2"/>
</g>
<g transform="translate(513.2 1579.8)">
<path d="m4.696 279.99c-12.231 40.048-148.01 82.18-137-63.611 4.878-64.661 17.892-421.74 20.393-456.15 2.523-34.433 8.261-84.732 24.901-91.008 83.192-31.396 230.32 77.37 208.44 206.61-14.608 86.401-91.36 321.09-116.73 404.15z" fill="#4941a2"/>
</g>
</g>
<g>
<g transform="translate(662.33 1280.5)">
<path d="m190.47 200.06s74.621-219.39-137.08-400.13c0 0-113.47 45.172-204.32 50.624-71.546 4.293-107.88-2.297-107.88-2.297s0.46057 196.87 0.21255 301.92l449.07 49.879z" fill="#4941a2"/>
</g>
<g>
<g transform="translate(972.29 2505.8)">
<path d="m-0.144-36.135c-1.74 9.805 12.161 39.509-12.728 61.316-24.87 21.771-81.424 44.747-43.95 45.615 37.471 0.86401 73.407-7.826 92.495-17.233 19.047-9.422 3.842-24.228 27.475-31.678 31.148-9.841 24.717-32.73 8.532-46.893-20.731-46.652-66.219-42.829-71.824-11.127z" fill="#9aa2f4"/>
</g>
<g transform="translate(873.22 2149.4)">
<path d="m-141.66-233.96c-32.823-92.527 73.817-108.89 134.3-51.887 141.64 133.48 147.13 448.03 181.84 610.38-19.698 13.491-50.985 18.326-61.917 17.732-11.611-0.62997-16.891-8.63-16.891-8.63-57.543-194.53-202.23-468.66-237.34-567.59z" fill="#4941a2"/>
</g>
<g transform="translate(733.72 1627.3)">
<path d="m137.93 258.01c3.706 41.709-109.47 127.93-154.02-11.323-19.762-61.758-104.34-426.74-114.94-459.57-10.593-32.862-7.695-100.65 5.371-112.71 65.31-60.341 212.73-7.278 240.98 120.73 18.909 85.564 14.926 376.36 22.608 462.88z" fill="#4941a2"/>
</g>
</g>
<g transform="matrix(.99705 -.076786 .076786 .99705 -31.26 35.708)">
<g transform="translate(374.35 220.87)">
<path d="m-85.576 66.474c3.851-4.07 7.707-8.147 11.158-12.563 26.812-34.314 30.724-64.722 55.585-104.54 3.584-5.739 8.562-20.921 18.062-34.561 9.931-14.262 34.052-29.779 40.321-33.056 11.624-6.075 1.629 19.514 1.629 19.514s9.868-14.292 19.396-13.273c3.708 0.399 4.352 22.224 4.412 25.953 0.476 29.972-6.588 60.036-20.365 86.66-3.229 6.241-6.917 12.651-6.937 19.679 8.848-0.179 16.267-6.3 23.414-11.519 7.145-5.218 16.104-9.996 24.477-7.134-1.168 3.57-2.943 6.906-4.709 10.221-10.595 19.896-22.485 41.067-42.848 50.735-12.166 5.777-26.243 6.792-38.134 13.116-21.46 11.411-31.893 37.833-53.677 48.61" fill="#f1a081"/>
</g>
<g transform="translate(417.14 202.93)">
<path d="m9.237 96.38-84.345-35.28c-0.32899-0.138-0.484-0.516-0.346-0.845l65.372-156.29c0.136-0.329 0.515-0.484 0.844-0.346l84.345 35.278c0.32899 0.138 0.484 0.516 0.347 0.845l-65.372 156.29c-0.138 0.329-0.516 0.485-0.845 0.347z" fill="#5e5dba"/>
</g>
<g transform="translate(419.46 203.9)">
<path d="m0 0" fill="#b4b4db"/>
</g>
<g transform="translate(242.48 487.61)">
<path d="m242.23-61.487s-54.755 2.828-103.61 17.503c-73.713 22.141-99.069 56.271-124.55 70.38 49.481-62.852 104.62-196.13 104.62-196.13s-66.498-54.64-74.145-41.703c-7.647 12.936-286.78 339.56-278.03 392.45 3.604 21.797 35.923 43.353 64.483 42.372 79.162-2.712 171.06-31.505 267.42-63.043 42.355-13.862 55.419 16.014 55.419 16.014" fill="#7a74d1"/>
</g>
<g transform="translate(251.73 537.13)">
<path d="m4.826-23.125s-35.147 70.857-45.703 75.475c-10.554 4.618 25.625-14.756 45.417-35.207 19.79-20.451 46.892-74.111 46.892-74.111-10.386 4.263-46.606 33.843-46.606 33.843z" fill="#6960c4"/>
</g>
<g transform="translate(349.68 221.62)">
<path d="m17.18-50.934c3.418 2.427 4.325 7.024 4.965 11.166 2.422 15.689 4.742 32.316-1.359 46.971-3.954 9.502-11.148 17.298-18.902 24.063-8.773 7.654-18.453 14.272-28.771 19.668" fill="#f1a081"/>
</g>
</g>
<g transform="translate(572.81 793.73)">
<path d="m-231.63-303.28c23.011-26.397 96.051-69.905 193.67-66.824 67.255 2.123 250.43 13.222 270.9 58.219 10.462 22.997 21.696 258.53 6.376 339.75-11.519 61.066-40.989 212.35-40.989 248.85 0 36.507 19.613 52.156 10.463 62.759-20.494 23.746-160.65 33.713-226.45 33.713-58.565 0-158.25-15.612-163.31-34.377-7.506-27.851 11.428-26.808 13.996-56.002 2.567-29.191 9.956-218.71-0.78799-249.73-19.4-56-28.814-147.32-44.22-188.74-11.693-31.434-42.656-121.23-19.646-147.63z" fill="#7a74d1"/>
</g>
<g transform="translate(659.06 935.4)">
<path d="m101.58-254.42c6.979 14.526 54.379 90.752 54.379 90.752l1.925 9.118c-1.168 15.785-2.743 29.713-4.822 40.734-11.517 61.065-40.988 212.34-40.988 248.85 0 36.508 18.777 51.49 10.462 62.76-16.156 21.895-280.43 71.151-267.43 10.005 1.175-5.534 221.8-173.87 222.99-179.52 10.164-48.304 19.027-83.112 23.488-118.34 10.731-84.788-6.979-178.89 0-164.36z" fill="#6d64c1"/>
</g>
<g transform="translate(536.91 393.55)">
<path d="m-55.238-54.174s-0.62 76.621-3.708 79.711c-3.09 3.09-18.225 10.246-18.225 10.246s10.795 66.585 27.479 61.642c16.683-4.943 126.86-60.587 126.86-60.587s-15.625-6.358-15.625-12.536c0-6.181 14.829-126.67 14.829-126.67" fill="#ffbd9d"/>
</g>
<g transform="translate(503.81 791.59)">
<path d="m-24.856-270.73s-6.446 298.96-18.616 480.83l43.962 60.636s30.224-75.933 30.224-75.933 12.758-219.34-28.596-463.45l-26.974-2.079z" fill="#3a2d79"/>
</g>
<g transform="translate(498.97 499.34)">
<path d="m-30.152-4.745 1.034 4.111c1.953 7.78 5.016 15.24 9.097 22.148l26.974 2.079s18.343-9.605 20.77-19.936c2.429-10.329-30.108-27.25-30.108-27.25l-3.951 1.552c-9.116 3.581-17.188 9.39-23.481 16.899 0 0-0.335 0.397-0.335 0.397z" fill="#3a2d79"/>
</g>
<g transform="translate(563.85 471.7)">
<path d="m36.494-72.493s17.251 10.708 30.767 31.189c-13.879 31.743-45.233 88.116-79.766 113.8-16.14-43.288-54.756-68.448-54.756-68.448s94.089-16.752 103.76-76.538z" fill="#fff"/>
</g>
<g transform="translate(466.53 464.99)">
<path d="m30.054 10.753s-33.669 13.349-53.652 50.996c0 0-6.456-50.925 7.292-94.647 0 0 22.094-28.264 29.738-28.851-3.164 36.022 16.622 72.502 16.622 72.502z" fill="#fff"/>
</g>
<g transform="matrix(.99962 .027447 -.027447 .99962 13.286 -21.87)">
<g transform="matrix(.99661 -.082259 .082259 .99661 -90.881 49.571)">
<g transform="translate(467.26 1167.4)">
<path d="m33.574-24.194c-33.423 5.035-45.771 17.448-64.604 36.051-1.542 1.521-3.167 3.428-2.82 5.566 0.433 2.664 3.565 3.849 6.229 4.279 15.522 2.492 18.05-7.423 32.557-13.482 9.797-4.092 19.529-8.335 29.261-12.577" fill="#f1a081"/>
</g>
<g transform="translate(301.95 1101.8)">
<path d="m85.412-202.15 118.42 379.52c3.185 10.189-2.603 18.977-12.544 19.049l-247.08 21.679c-8.862 0.063004-17.872-6.879-20.71-15.96l-127.32-373.75c-3.185-10.185 11.507-24.75 21.447-24.822l247.08-21.681c8.862-0.063004 17.872 6.879 20.712 15.96z" fill="#e9e6ff"/>
</g>
<g transform="translate(297.46 1108.8)">
<path d="m81.786-199.22 116.77 373.68c3.183 10.186-2.604 18.975-12.545 19.048l-247.08 21.678c-8.863 0.06601-17.871-6.879-20.709-15.961l-116.77-373.67c-3.184-10.187 2.605-18.975 12.545-19.047l247.08-21.681c8.862-0.062988 17.872 6.878 20.712 15.96z" fill="#dfd9ff"/>
</g>
<g transform="translate(244.04 908.82)">
<path d="m-62.165-11.342 8.766 32.76 115.56-10.21-9.502-32.626-114.83 10.076z" fill="#fff"/>
</g>
<g transform="translate(234.63 869.12)">
<path d="m-30.873-2.091c2.384 7.629 11.575 37.062 11.575 37.062l55.157-5.107s-11.573-37.062-11.573-37.062c-4.989-15.97-21.377-27.774-36.61-26.365-15.23 1.411-23.535 15.5-18.549 31.472zm12.225-0.748c-2.801-8.962 1.858-16.866 10.405-17.658 8.544-0.789 17.741 5.833 20.539 14.791 2.797 8.962-1.861 16.866-10.407 17.658-8.545 0.789-17.741-5.833-20.537-14.791z" fill="#fff"/>
</g>
<g transform="translate(524.65 1191.3)">
<path d="m70.314-74.594c-25.919 5.408-95 26.021-102.25 29.443-8.667 4.086-37.283 25.784-44.05 32.568-25.997 26.066-12.704 38.234-22.948 73.593-0.529 1.824-0.62701 3.701-0.636 5.6-0.015999 3.692 4.974 6.868 10.003 3.424 2.704 4.56 10.731 1.744 14.621-3.219-0.063004 3.531 4.888 5.763 12.84 1.359 4.29-2.377 3.519-2.155 13.448-11.017 7.098-6.335 15.347-11.353 28.117-17.116 8.593-3.879 19.549-7.343 27.426-12.525 10.5-6.908 29.214-8.55 38.445-38.51 2.041-6.622 8.545-10.71 14.416-14.392 14.08-8.834 28.161-17.665 42.241-26.497" fill="#ffbd9d"/>
</g>
<g transform="translate(470.73 1234.2)">
<path d="m19.374-19.73c-3.787 2.685-7.551 5.404-11.238 8.222-1.834 1.419-3.662 2.852-5.374 4.413-0.871 0.764-1.642 1.628-2.427 2.482-0.776 0.861-1.546 1.729-2.294 2.614-2.994 3.542-5.842 7.208-8.67 10.89-2.826 3.683-5.696 7.337-8.745 10.839 2.961-3.576 5.794-7.253 8.604-10.947 2.818-3.688 5.59-7.419 8.64-10.928 1.537-1.741 3.04-3.517 4.769-5.085 1.727-1.559 3.563-2.984 5.407-4.396 3.693-2.817 7.506-5.47 11.328-8.104z" fill="#f1a081"/>
</g>
<g transform="translate(456.85 1226.6)">
<path d="m19.067-29.179c-2.53 1.502-4.579 3.658-6.567 5.795-1.969 2.17-3.843 4.425-5.635 6.743-1.794 2.316-3.526 4.684-5.175 7.105-0.823 1.211-1.63 2.434-2.391 3.684-0.381 0.624-0.751 1.256-1.084 1.903-0.325 0.643-0.597 1.333-0.897 2-2.346 5.38-5.024 10.607-7.786 15.78-2.766 5.173-5.666 10.27-8.599 15.348 2.833-5.134 5.695-10.253 8.443-15.431 2.751-5.178 5.337-10.442 7.735-15.788 0.304-0.668 0.573-1.343 0.911-2.007 0.341-0.655 0.714-1.288 1.1-1.913 0.769-1.251 1.583-2.473 2.412-3.683 1.662-2.418 3.403-4.78 5.209-7.093 1.808-2.308 3.68-4.572 5.681-6.718 2.016-2.116 4.094-4.252 6.643-5.725z" fill="#f1a081"/>
</g>
<g transform="translate(444.68 1213.7)">
<path d="m14.949-30.04c-0.766 1.2-1.694 2.287-2.616 3.369-0.925 1.082-1.88 2.136-2.833 3.193-1.909 2.109-3.844 4.197-5.717 6.335-1.853 2.154-3.72 4.328-4.825 6.972-1.251 2.554-2.457 5.129-3.571 7.745-2.231 5.23-4.256 10.551-5.978 15.973-1.718 5.422-3.159 10.93-4.358 16.493 0.552-2.791 1.164-5.572 1.858-8.333 0.706-2.757 1.487-5.496 2.328-8.216 1.705-5.43 3.653-10.791 5.947-16.004 1.129-2.613 2.351-5.187 3.618-7.736 0.327-0.633 0.625-1.276 0.975-1.899 0.347-0.63 0.764-1.212 1.185-1.788 0.85-1.145 1.785-2.219 2.715-3.298 1.878-2.139 3.827-4.214 5.76-6.301 0.964-1.046 1.929-2.091 2.864-3.163 0.931-1.073 1.871-2.15 2.648-3.342z" fill="#f1a081"/>
</g>
</g>
<g transform="translate(742.48 819.1)">
<path d="m11.769-188.57c10.992 39.188 56.716 310.79 56.716 310.79l-257.55 186.52s21.43 56.338 21.43 56.338 308.15-103.47 332.42-174.19c24.275-70.72 23.152-390.2-62.425-502.28-27.243-35.676-81.845-53.685-81.845-53.685" fill="#7a74d1"/>
</g>
</g>
<g transform="matrix(.99204 -.12594 .12594 .99204 -40.385 71.174)">
<g transform="translate(481.5 144.44)">
<path d="m4.924-91.646c-18.643 5.379-28.502 29.457-34.836 45.926-7.629 19.837-11.445 40.938-13.943 61.973-1.739 14.639-2.781 30.047 3.039 43.594 2.972 6.917 7.59 12.975 12.163 18.956 2.59 3.391 5.245 6.841 8.775 9.239 3.53 2.396 8.149 3.604 12.132 2.072 5.813-2.239 8.144-9.058 9.793-15.064 10.75-39.139 22.501-78.717 44.588-112.77" fill="#160d53"/>
</g>
<g transform="translate(446.77 197.56)">
<path d="m18.966-20.827c-0.37-12.463-13.486-20.582-24.847-7.684-9.408 10.681-11.913 30.954-12.445 45.937-0.64 17.946 13.272 21.471 24.715 23.983" fill="#f1a081"/>
</g>
<g transform="translate(551.49 208.94)">
<path d="m6.697-147.87c-16.055 4.378-58.382-4.379-70.059 13.135-11.675 17.513-21.892 59.84-26.272 71.519-8.716 23.245-14.398 48.09-20.73 72.051-8.252 31.229-21.854 88.431 8.696 114.55 8.777 7.504 12.697 9.989 23.57 11.959 14.459 2.621 28.855 5.583 43.319 8.18 22.416 4.023 47.247 8.715 69.51 1.485 29.746-9.663 46.057-50.555 53.702-78.327l43.785-159.09-125.52-55.463z" fill="#ffbd9d"/>
</g>
<g transform="translate(596.36 168.34)">
<path d="m59.992 79.697c-10.093-5.905-17.828-12.136-24.399-2.465-3.484 5.126-5.599 12.208-11.541 13.97-5.923 1.755-12.051-3.567-13.512-9.566-1.462-6 0.388-12.256 2.219-18.153 4.054-13.049 8.108-26.099 12.164-39.147 3.969-12.78 7.908-26.819 2.835-39.202-2.56-6.254-7.226-11.435-12.357-15.833-16.718-14.341-38.507-21.292-60.088-25.705-21.578-4.412-43.673-6.663-64.681-13.276-8.828-2.78-17.577-6.415-24.633-12.402-11.397-9.67-17.292-24.879-17.455-39.827-0.16301-14.946 4.973-29.605 12.63-42.441 1.585 5.135 3.757 10.087 6.463 14.729 2.626-6.867 6.661-13.19 11.778-18.472 6.286 35.046 153.86 23.335 188.33 38.789 23.893 10.711 43.664 17.713 42.939 56.438 0.69 2.523 2.749 4.392 4.673 6.162 21.174 19.46 30.346 43.121 33.006 78.257 3.257 42.985-21.778 89.527-46.313 124.97-6.169 8.907-9.601 15.229-18.223 21.791-8.621 6.56-23.651 9.779-34.292 7.745-10.642-2.032-31.608-1.118-31.812-11.949-0.142-7.752 16.425-21.581 21.015-27.828" fill="#3a2d79"/>
</g>
<g transform="translate(643.42 268.6)">
<path d="m-25.707 20.054s-1.735 7.209 2.765 12.88c3.944 4.975 11.963 4.254 17.464 2.472 15.679-5.073 26.49-20.35 29.443-36.128 3.477-18.591-6.508-37.186-23.526-32.35-9.959 2.829-16.175 14.12-16.068 24.471" fill="#ffbd9d"/>
</g>
</g>
</g>
</g>
</g>
<g transform="translate(2512.7 885.83)" display="block">
<g transform="translate(1938.9 413.58)">
<path d="m-551.06 413.33h1179.2l-141.21-104.47v-645.14c0-42.552-34.495-77.048-77.049-77.048h-960.91c-42.551 0-77.048 34.496-77.048 77.048v672.56c0 42.553 34.497 77.047 77.048 77.047z" fill="#d4d2ff"/>
</g>
<g transform="matrix(-.65 0 0 .57168 4438.5 1016.9)">
<path d="m-1003.7 538.65 1618-16.347-127.35-213.44v-645.14c0-42.552-34.495-77.048-77.049-77.048 0 0-1399.7 16.346-1399.7 16.346-42.551 0-77.049 34.497-77.049 77.049l-13.856 781.54c0 42.553 34.497 77.048 77.048 77.048z" fill="#d4d2ff"/>
</g>
<g>
<g transform="matrix(.89691 0 0 .89691 223.06 32.761)">
<g transform="matrix(.99593 0 0 1 2163.7 586.22)">
<path d="m169-20v40h-338v-40h338z" fill="#fff"/>
<path d="m169-20v40h-338v-40h338z" fill-opacity="0" stroke="#46341f" stroke-width="0"/>
</g>
<g transform="translate(2163.7 317.78)">
<path d="m-164.94 197.9h329.88c2.382 0 4.312-1.931 4.312-4.313v-387.18c0-2.382-1.93-4.313-4.312-4.313h-329.88c-2.382 0-4.313 1.931-4.313 4.313v387.18c0 2.382 1.931 4.313 4.313 4.313z" fill="#c4c4f7"/>
</g>
<g transform="translate(2191.7 317.78)">
<path d="m-61.423 58.95h122.85c6.921 0 12.981-4.638 14.791-11.317l23.627-87.255c2.637-9.74-4.699-19.328-14.79-19.328h-170.1c-10.094 0-17.429 9.588-14.79 19.328 0 0 23.628 87.255 23.628 87.255 1.808 6.679 7.869 11.317 14.79 11.317z" fill="#fff"/>
</g>
<g transform="translate(2140.5 302.43)">
<path d="m-31.825 93.929h147.95c1.689 0 3.054-1.364 3.054-3.05 0-1.688-1.365-3.052-3.054-3.052h-145.65l-51.477-179.54c-0.377-1.308-1.571-2.213-2.933-2.213h-32.191c-1.688 0-3.054 1.365-3.054 3.053 0 1.688 1.366 3.054 3.054 3.054h29.889l51.477 179.54c0.375 1.309 1.571 2.209 2.933 2.209z" fill="#fff"/>
</g>
<g transform="translate(2251.9 420.42)">
<path d="m-17.89 0c0 9.88 8.009 17.89 17.891 17.89 9.88 0 17.889-8.01 17.889-17.89s-8.009-17.89-17.889-17.89c-9.882 0-17.891 8.01-17.891 17.89z" fill="#fff"/>
</g>
<g transform="translate(2121.8 420.42)">
<path d="m-17.89 0c0 9.88 8.009 17.89 17.889 17.89 9.881 0 17.891-8.01 17.891-17.89s-8.01-17.89-17.891-17.89c-9.88 0-17.889 8.01-17.889 17.89z" fill="#fff"/>
</g>
</g>
<g transform="matrix(.092963 0 0 1 1435.6 144.17)">
<path d="m269-28v56h-538v-56h538z" fill="#fff"/>
<path d="m269-28v56h-538v-56h538z" fill-opacity="0" stroke="#46341f" stroke-width="0"/>
</g>
<g transform="matrix(.10059 0 0 1 1437.6 220.17)">
<path d="m269-28v56h-538v-56h538z" fill="#fff"/>
<path d="m269-28v56h-538v-56h538z" fill-opacity="0" stroke="#46341f" stroke-width="0"/>
</g>
<g transform="matrix(.10918 0 0 1 1440 296.17)">
<path d="m269-28v56h-538v-56h538z" fill="#fff"/>
<path d="m269-28v56h-538v-56h538z" fill-opacity="0" stroke="#46341f" stroke-width="0"/>
</g>
<g transform="matrix(.11892 0 0 1 1442.6 372.17)">
<path d="m269-28v56h-538v-56h538z" fill="#fff"/>
<path d="m269-28v56h-538v-56h538z" fill-opacity="0" stroke="#46341f" stroke-width="0"/>
</g>
<g transform="matrix(.1427 0 0 1 1449.1 446.17)">
<path d="m269-28v56h-538v-56h538z" fill="#fff"/>
<path d="m269-28v56h-538v-56h538z" fill-opacity="0" stroke="#46341f" stroke-width="0"/>
</g>
<g transform="matrix(.17428 0 0 1 1457.7 584.17)">
<path d="m269-28v56h-538v-56h538z" fill="#fff"/>
<path d="m269-28v56h-538v-56h538z" fill-opacity="0" stroke="#46341f" stroke-width="0"/>
</g>
<g transform="matrix(.21741 0 0 1 1509.7 666.17)">
<path d="m462-26v52h-924v-52h924z" fill="#fff"/>
<path d="m462-26v52h-924v-52h924z" fill-opacity="0" stroke="#46341f" stroke-width="0"/>
</g>
</g>
<g transform="matrix(-.92525 0 0 1 6366.2 756)">
<g transform="matrix(.89691 0 0 .89691 223.06 32.761)">
<g transform="translate(2163.7 317.78)">
<path d="m-164.94 197.9h329.88c2.382 0 4.312-1.931 4.312-4.313v-387.18c0-2.382-1.93-4.313-4.312-4.313h-329.88c-2.382 0-4.313 1.931-4.313 4.313v387.18c0 2.382 1.931 4.313 4.313 4.313z" fill="#c4c4f7"/>
</g>
<g transform="translate(2191.7 317.78)">
<path d="m-61.423 58.95h122.85c6.921 0 12.981-4.638 14.791-11.317l23.627-87.255c2.637-9.74-4.699-19.328-14.79-19.328h-170.1c-10.094 0-17.429 9.588-14.79 19.328 0 0 23.628 87.255 23.628 87.255 1.808 6.679 7.869 11.317 14.79 11.317z" fill="#fff"/>
</g>
<g transform="translate(2140.5 302.43)">
<path d="m-31.825 93.929h147.95c1.689 0 3.054-1.364 3.054-3.05 0-1.688-1.365-3.052-3.054-3.052h-145.65l-51.477-179.54c-0.377-1.308-1.571-2.213-2.933-2.213h-32.191c-1.688 0-3.054 1.365-3.054 3.053 0 1.688 1.366 3.054 3.054 3.054h29.889l51.477 179.54c0.375 1.309 1.571 2.209 2.933 2.209z" fill="#fff"/>
</g>
<g transform="translate(2251.9 420.42)">
<path d="m-17.89 0c0 9.88 8.009 17.89 17.891 17.89 9.88 0 17.889-8.01 17.889-17.89s-8.009-17.89-17.889-17.89c-9.882 0-17.891 8.01-17.891 17.89z" fill="#fff"/>
</g>
<g transform="translate(2121.8 420.42)">
<path d="m-17.89 0c0 9.88 8.009 17.89 17.889 17.89 9.881 0 17.891-8.01 17.891-17.89s-8.01-17.89-17.891-17.89c-9.88 0-17.889 8.01-17.889 17.89z" fill="#fff"/>
</g>
</g>
<g transform="matrix(.092963 0 0 1 1441.7 144.17)">
<path d="m268.04-24v48h-536.07v-48h536.07z" fill="#fff"/>
<path d="m268.04-24v48h-536.07v-48h536.07z" fill-opacity="0" stroke="#46341f" stroke-width="0"/>
</g>
<g transform="matrix(.10059 0 0 1 1443.8 220.17)">
<path d="m268.04-24v48h-536.07v-48h536.07z" fill="#fff"/>
<path d="m268.04-24v48h-536.07v-48h536.07z" fill-opacity="0" stroke="#46341f" stroke-width="0"/>
</g>
<g transform="matrix(.10918 0 0 1 1446.1 296.17)">
<path d="m268.04-24v48h-536.07v-48h536.07z" fill="#fff"/>
<path d="m268.04-24v48h-536.07v-48h536.07z" fill-opacity="0" stroke="#46341f" stroke-width="0"/>
</g>
<g transform="matrix(.11892 0 0 1 1448.7 372.17)">
<path d="m268.04-24v48h-536.07v-48h536.07z" fill="#fff"/>
<path d="m268.04-24v48h-536.07v-48h536.07z" fill-opacity="0" stroke="#46341f" stroke-width="0"/>
</g>
<g transform="matrix(.1427 0 0 1 1455.1 448.17)">
<path d="m268.04-24v48h-536.07v-48h536.07z" fill="#fff"/>
<path d="m268.04-24v48h-536.07v-48h536.07z" fill-opacity="0" stroke="#46341f" stroke-width="0"/>
</g>
</g>
<g transform="matrix(1.3789 0 0 1.3789 -50.791 -394.23)">
<g transform="translate(228.47 1130.4)">
<path d="m-31.707 6.984 63.414 31.92-31.707-77.803" fill="#3939d2"/>
</g>
<g transform="translate(134.03 1037.9)">
<path d="m-134.03 1e-3c0 69.858 60.008 126.49 134.03 126.49s134.03-56.632 134.03-126.49c0-69.859-60.008-126.49-134.03-126.49s-134.03 56.633-134.03 126.49z" fill="#3939d2"/>
</g>
<g transform="translate(150.64 1041.6)">
<path d="m-49.418-45.213v90.426c0 7.292 7.894 11.851 14.21 8.205l78.312-45.214c6.315-3.646 6.315-12.762 0-16.408l-78.312-45.214c-6.316-3.646-14.21 0.913-14.21 8.205z" fill="#fdfdfd"/>
</g>
</g>
<g transform="matrix(1.0322 0 0 1.0322 -149.84 -64.489)">
<g transform="translate(4551.8 2092.2)">
<path d="m31.708 6.982-63.416 31.921s31.706-77.802 31.706-77.802" fill="#3939d2"/>
</g>
<g transform="translate(4646.3 1999.7)">
<path d="m134.03 0c0 69.858-60.006 126.49-134.03 126.49-74.022 0-134.03-56.632-134.03-126.49 0-69.86 60.008-126.49 134.03-126.49 74.026 0 134.03 56.632 134.03 126.49z" fill="#3939d2"/>
</g>
<g transform="translate(4677.9 1986.7)">
<path d="m-55.609 73.582c29.208 0.473 58.782 0.846 85.641-0.908 8.505-0.55601 15.856-13.304 5.526-17.33 4.346-2.105 8.748-4.135 10.648-8.733 1.797-4.353-0.362-10.261-5.169-11.384 10.132 2.367 14.126-12.805 6.224-17.702 4.182-3.362 7.661-7.808 8.543-12.926 0.884-5.117-1.337-10.897-6.163-13.374-3.163-1.625-6.929-1.688-10.529-1.716-12.148-0.085-24.294-0.171-36.443-0.256 3.291-17.94 4.281-37.49-5.381-53.248-2.909-4.747-10.728-10.433-16.933-6.784-5.819 3.427-4.203 11.935-3.91 17.303 1.214 22.316-12.242 44.762-33.133 55.276 0 0 1.382 47.535 1.079 71.782z" fill="#fdfdfd"/>
</g>
<g transform="translate(4589.7 2024.4)">
<path d="m0 0" fill="#fdfdfd"/>
</g>
</g>
<g transform="matrix(1.0322 0 0 1.0322 -80.378 -32.67)">
<g transform="translate(2569.6 976.45)">
<path d="m-14.567 24.991 46.266-49.982-63.398 12.418" fill="#3939d2"/>
</g>
<g transform="translate(2480.8 1013.1)">
<path d="m-97.195 1e-3c0 50.659 43.515 91.727 97.194 91.727 53.68 0 97.196-41.068 97.196-91.727 0-50.66-43.516-91.729-97.196-91.729-53.679 0-97.194 41.069-97.194 91.729z" fill="#3939d2"/>
</g>
<g transform="translate(2498.6 1003.6)">
<path d="m-36.43 53.359c19.135 0.342 38.511 0.614 56.107-0.657 5.572-0.404 10.387-9.65 3.62-12.568 2.845-1.526 5.731-2.997 6.975-6.332 1.179-3.157-0.237-7.443-3.386-8.256 6.639 1.717 9.254-9.285 4.078-12.838 2.739-2.438 5.019-5.661 5.596-9.373 0.578-3.71-0.876-7.901-4.039-9.698-2.07-1.177-4.539-1.224-6.896-1.244-7.959-0.062-15.916-0.123-23.874-0.185 2.155-13.01 2.803-27.186-3.527-38.615-1.906-3.441-7.028-7.566-11.094-4.917-3.813 2.483-2.752 8.653-2.56 12.545 0.795 16.182-8.021 32.461-21.708 40.085 0 0 0.905 34.47 0.708 52.053z" fill="#fdfdfd"/>
</g>
<g transform="translate(2440.8 1030.9)">
<path d="m0 0" fill="#fdfdfd"/>
</g>
</g>
</g>
<g transform="translate(3499.5 1074.5)" display="block">
<g transform="matrix(1.3789 0 0 1.3789 -1097.2 -92.602)">
<g transform="translate(2895.5 244.37)">
<path d="m112.06 86.594c19.583-24.521 31.361-55.55 31.361-89.371 0-79.21-64.21-143.42-143.42-143.42-79.207 0-143.42 64.213-143.42 143.42 0 79.207 64.212 143.42 143.42 143.42 29.401 0 56.711-8.878 79.462-24.054l55.522 29.613s-22.924-59.607-22.924-59.607z" fill="#3939d2"/>
</g>
<g transform="translate(2893.3 243.4)">
<path d="m-58.326-40.984c13.836-13.544 35.989-13.308 49.52 0.523 0 0 8.919 9.11 8.919 9.11l9.182-9.042c13.773-13.584 35.946-13.401 49.524 0.375 13.564 13.784 13.401 35.955-0.388 49.527l-34.065 33.547c-0.071999 0.070999-0.119 0.158-0.192 0.228-5.437 5.327-12.156 8.514-19.148 9.588-10.777 1.656-22.163-1.731-30.371-10.109 0 0-33.508-34.219-33.508-34.219-13.53-13.824-13.294-35.992 0.527-49.528z" fill="#fff"/>
</g>
</g>
</g>
</g>
</svg>
